<svg width="25" height="26" viewBox="0 0 25 26" fill="none" xmlns="http://www.w3.org/2000/svg">
<g id="ship-line" clip-path="url(#clip0_58_175)">
<g id="Group">
<path id="Vector" fill-rule="evenodd" clip-rule="evenodd" d="M10.4166 3.62492C10.4166 3.34865 10.5264 3.0837 10.7217 2.88835C10.9171 2.693 11.182 2.58325 11.4583 2.58325H13.5416C13.8179 2.58325 14.0829 2.693 14.2782 2.88835C14.4736 3.0837 14.5833 3.34865 14.5833 3.62492V4.99992L18.051 5.577C18.5373 5.65835 18.9789 5.90951 19.2974 6.28581C19.6159 6.66212 19.7907 7.1392 19.7906 7.63221V11.2072L21.9364 11.9218C22.1073 11.9788 22.2645 12.0707 22.3981 12.1916C22.5317 12.3124 22.6387 12.4597 22.7124 12.6241C22.7862 12.7885 22.825 12.9664 22.8264 13.1466C22.8279 13.3267 22.7919 13.5052 22.7208 13.6708L20.0948 19.7989L21.2989 20.402C21.4256 20.4605 21.5392 20.5438 21.633 20.6471C21.7268 20.7503 21.7989 20.8714 21.8451 21.003C21.8912 21.1347 21.9105 21.2742 21.9017 21.4135C21.8929 21.5527 21.8562 21.6887 21.7938 21.8135C21.7314 21.9383 21.6446 22.0492 21.5385 22.1398C21.4324 22.2304 21.3092 22.2988 21.1762 22.3408C21.0432 22.3829 20.9031 22.3978 20.7642 22.3847C20.6253 22.3716 20.4905 22.3307 20.3677 22.2645L17.5979 20.8801C17.3087 20.7356 16.9899 20.6604 16.6666 20.6604C16.3434 20.6604 16.0245 20.7356 15.7354 20.8801L14.3635 21.5666C13.7849 21.8559 13.1469 22.0065 12.5 22.0065C11.8531 22.0065 11.215 21.8559 10.6364 21.5666L9.26455 20.8801C8.97525 20.7355 8.65623 20.6601 8.33278 20.6601C8.00932 20.6601 7.69031 20.7355 7.40101 20.8801L4.63226 22.2655C4.385 22.389 4.09881 22.4092 3.83665 22.3217C3.57449 22.2342 3.35783 22.0461 3.23434 21.7989C3.11085 21.5516 3.09064 21.2654 3.17816 21.0033C3.26567 20.7411 3.45375 20.5245 3.70101 20.401L5.60934 19.4468L2.37809 13.7926C2.28252 13.6254 2.22525 13.439 2.21041 13.2469C2.19557 13.0548 2.22354 12.8619 2.29229 12.6819C2.36105 12.502 2.46887 12.3395 2.608 12.2063C2.74713 12.073 2.91409 11.9723 3.09684 11.9114L5.2083 11.2072V7.63221C5.2082 7.1392 5.38294 6.66212 5.70146 6.28581C6.01998 5.90951 6.46163 5.65835 6.94788 5.577L10.4166 4.99992V3.62492ZM7.55205 18.651C8.44955 18.4797 9.37847 18.6081 10.1958 19.0166L11.5666 19.703C11.8561 19.8479 12.1753 19.9233 12.4989 19.9233C12.8226 19.9233 13.1418 19.8479 13.4312 19.703L14.802 19.0166C15.3296 18.7528 15.9072 18.6041 16.4965 18.5802C17.0859 18.5563 17.6736 18.6578 18.2208 18.878L20.4708 13.6301L12.5 10.9739L4.65934 13.5864L7.55205 18.651ZM17.7083 10.5135V7.63221L12.5 6.7645L7.29163 7.63221V10.5135L11.8406 8.99679C12.2683 8.85423 12.7306 8.85423 13.1583 8.99679L17.7083 10.5135Z" fill="#080464"/>
</g>
</g>
<defs>
<clipPath id="clip0_58_175">
<rect width="25" height="25" fill="white" transform="translate(0 0.5)"/>
</clipPath>
</defs>
</svg>
