<svg width="16" height="17" viewBox="0 0 16 17" fill="none" xmlns="http://www.w3.org/2000/svg">
<g id="image" clip-path="url(#clip0_17_1394)">
<g id="Page-1">
<g id="Artboard">
<g id="search-icon-white">
<path id="Shape" d="M12.3152 6.57616C12.3152 4.99935 11.7333 3.60805 10.4727 2.495C9.30909 1.38196 7.85455 0.825439 6.10909 0.825439C4.36364 0.825439 2.90909 1.38196 1.74545 2.495C0.581818 3.60805 0 4.99935 0 6.57616C0 8.15298 0.581818 9.54428 1.84242 10.6573C3.00606 11.7704 4.55758 12.3269 6.20606 12.3269C7.95152 12.3269 9.40606 11.7704 10.5697 10.6573C11.7333 9.54428 12.3152 8.15298 12.3152 6.57616ZM6.10909 11.0283C4.75152 11.0283 3.68485 10.5646 2.71515 9.72979C1.84242 8.89501 1.35758 7.78196 1.35758 6.57616C1.35758 5.37037 1.84242 4.25732 2.71515 3.42254C3.68485 2.58776 4.75152 2.12399 6.10909 2.12399C7.46667 2.12399 8.53333 2.58776 9.50303 3.42254C10.4727 4.25732 10.8606 5.37037 10.8606 6.57616C10.8606 7.78196 10.3758 8.89501 9.40606 9.72979C8.53333 10.5646 7.46667 11.0283 6.10909 11.0283Z" fill="white"/>
<path id="Path" d="M15.7091 15.3878L11.5394 11.4921C11.2485 11.2139 10.8606 11.2139 10.5697 11.4921C10.4727 11.5849 10.3757 11.7704 10.3757 11.9559C10.3757 12.1414 10.4727 12.3269 10.5697 12.4196L14.7394 16.3153C14.8363 16.4081 15.0303 16.5008 15.2242 16.5008C15.4182 16.5008 15.6121 16.4081 15.7091 16.3153C15.806 16.2225 15.903 16.037 15.903 15.8515C15.903 15.666 15.903 15.4805 15.7091 15.3878Z" fill="white"/>
</g>
</g>
</g>
</g>
<defs>
<clipPath id="clip0_17_1394">
<rect width="16" height="16" fill="white" transform="translate(0 0.825439)"/>
</clipPath>
</defs>
</svg>
