<svg width="208" height="73" viewBox="0 0 208 73" fill="none" xmlns="http://www.w3.org/2000/svg">
<g clip-path="url(#clip0_17_2776)">
<g clip-path="url(#clip1_17_2776)">
<g clip-path="url(#clip2_17_2776)">
<path fill-rule="evenodd" clip-rule="evenodd" d="M78.759 58.5422L78.7578 58.5436L78.756 58.5422H78.759ZM78.759 58.5422L99.6266 35.6935L80.7473 14.771H95.0116L106.85 27.7667L118.719 14.771H133.023L114.091 35.7045L134.897 58.5422H120.238L106.856 43.7083L93.4457 58.5422H78.759ZM7.55446 30.5763C9.61836 30.5763 10.6627 31.7555 11.0741 33.3805H13.5439C13.2453 30.3314 10.7411 28.5785 7.55446 28.5592C3.33032 28.5592 0.799988 31.911 0.799988 35.9466C0.799988 39.9822 3.33032 43.3395 7.55446 43.3395C10.9764 43.3395 13.3664 41.0032 13.57 37.6307H11.1594C10.9571 39.6823 9.74495 41.3251 7.55446 41.3251C4.53564 41.3251 3.26704 38.6572 3.26704 35.948C3.26704 33.2388 4.53427 30.5763 7.55446 30.5763ZM17.0829 38.477C17.0829 40.0827 17.9497 41.5013 19.8224 41.5013C21.1281 41.5013 21.9262 40.9275 22.3115 39.8062H24.4469C23.9557 42.0324 22.0597 43.2804 19.8224 43.2804C16.6192 43.2804 14.8263 41.0417 14.8263 37.9073C14.8263 34.9958 16.7279 32.5109 19.7646 32.5109C22.9843 32.5109 24.9656 35.4169 24.5858 38.477H17.0829ZM22.3376 36.9937C22.2523 35.5765 21.285 34.29 19.766 34.29C18.2455 34.29 17.1366 35.4747 17.0829 36.9937H22.3376ZM28.6037 28.8922H26.3499V43.0051H28.6037V28.8922ZM32.518 38.477C32.518 40.0827 33.3849 41.5013 35.2658 41.5013C36.5661 41.5013 37.3544 40.9275 37.7479 39.8062H39.8848C39.3853 42.0324 37.4975 43.2804 35.2658 43.2804C32.0626 43.2804 30.267 41.0417 30.267 37.9073C30.267 34.9958 32.1603 32.5109 35.1997 32.5109C38.4208 32.5109 40.3953 35.4169 40.0196 38.477H32.518ZM37.7741 36.9937C37.6902 35.5765 36.7201 34.29 35.1997 34.29C33.6807 34.29 32.5703 35.4747 32.5166 36.9937H37.7727H37.7741ZM43.9657 28.8922H41.7188V43.0065H43.8516V41.6058H43.8914C44.567 42.946 46.0434 43.2831 47.4303 43.2831C50.4519 43.2831 51.8347 40.6908 51.8347 37.9445C51.8347 34.967 50.2758 32.5137 47.0492 32.5137C45.9044 32.5137 44.622 33.1246 44.0098 34.1153H43.9657V28.8922ZM43.8914 37.9087C43.8914 35.7361 44.856 34.29 46.7575 34.29C48.6095 34.29 49.5851 36.047 49.5851 37.9087C49.5851 39.6823 48.809 41.5013 46.7575 41.5013C44.9358 41.5013 43.8914 39.9643 43.8914 37.9087ZM53.8326 32.7848H55.9488V34.7565H55.9832C56.2405 33.6681 57.5889 32.5109 58.969 32.5109C59.3537 32.5109 59.5306 32.5336 59.6774 32.5524C59.7254 32.5586 59.7702 32.5643 59.8179 32.5687V34.7399C59.7591 34.7323 59.6996 34.7241 59.6396 34.7158C59.3766 34.6797 59.1047 34.6423 58.8492 34.6423C57.3096 34.6423 56.0836 35.8903 56.0836 38.1372V43.0038H53.8326V32.7848ZM63.8287 28.8922H61.571V31.0277H63.8287V28.8922ZM63.8287 32.7861H61.571V43.0065H63.8287V32.7861ZM65.7426 32.7847H67.4406V29.7232H69.6929V32.7847H71.7238V34.462H69.6929V39.9175C69.6929 40.8463 69.7618 41.3237 70.7788 41.3237C71.0938 41.3237 71.4118 41.3237 71.7238 41.2426V42.9859C71.5456 42.9988 71.3704 43.0174 71.1964 43.0359C70.8874 43.0688 70.5796 43.1015 70.2628 43.1015C67.9127 43.1015 67.4766 42.1892 67.4406 40.4955V34.4634H65.7426V32.7861V32.7847ZM75.5324 32.7847H73.0665L76.9345 42.9625L76.6825 43.7481C76.3981 44.6205 76.1485 45.1764 75.0992 45.1764C74.8244 45.1764 74.5484 45.1277 74.2724 45.0789C74.1914 45.0647 74.111 45.0505 74.03 45.0374V46.9389C74.5442 47.0132 75.062 47.0531 75.59 47.0531C77.8201 47.0531 78.4146 45.5553 79.0998 43.8294C79.1358 43.7387 79.1724 43.6473 79.209 43.5555L83.1826 32.7847H80.8313L78.24 40.4129H78.2004L75.5324 32.7847ZM140.706 33.3805C140.284 31.7555 139.245 30.5763 137.182 30.5763C134.164 30.5763 132.895 33.2388 132.895 35.948C132.895 38.6572 134.165 41.3251 137.182 41.3251C139.376 41.3251 140.585 39.6823 140.782 37.6307H143.195C142.993 41.0032 140.606 43.3395 137.184 43.3395C132.959 43.3395 130.424 39.9822 130.424 35.9466C130.424 31.911 132.959 28.5592 137.184 28.5592C140.371 28.5785 142.875 30.3314 143.173 33.3805H140.708H140.706ZM147.34 32.7848H145.223V43.0038H147.478V38.1372C147.478 35.8903 148.711 34.6423 150.25 34.6423C150.496 34.6423 150.75 34.6767 151.005 34.7113C151.077 34.721 151.149 34.7309 151.221 34.7399V32.5687C151.171 32.5642 151.125 32.5583 151.076 32.5521C150.929 32.5333 150.753 32.5109 150.367 32.5109C148.988 32.5109 147.642 33.6681 147.382 34.7565H147.34V32.7848ZM162.037 43.0051H159.831V41.5783H159.789C159.233 42.5992 158.013 43.2817 156.881 43.2817C154.215 43.2817 153.07 41.9361 153.07 39.2667V32.7861H155.331V39.0521C155.331 40.8477 156.057 41.5026 157.281 41.5026C159.156 41.5026 159.789 40.2973 159.789 38.7164V32.7875H162.037V43.0051ZM166.942 28.8922H164.687V31.0277H166.942V28.8922ZM166.942 32.7861H164.687V43.0065H166.942V32.7861ZM171.476 39.7208C171.589 41.0252 172.577 41.4999 173.777 41.4999C174.628 41.4999 176.117 41.3237 176.05 40.1555C175.999 39.1495 174.802 38.8979 173.434 38.6104C173.197 38.5606 172.954 38.5096 172.711 38.4535C171.06 38.1067 169.439 37.5124 169.439 35.4347C169.439 33.1947 171.845 32.5095 173.7 32.5095C175.797 32.5095 177.69 33.3777 177.979 35.6439H175.621C175.425 34.5816 174.535 34.2885 173.544 34.2885C172.893 34.2885 171.688 34.4509 171.688 35.3384C171.688 36.2838 172.906 36.5354 174.3 36.8234L174.301 36.8235C174.534 36.8716 174.772 36.9208 175.009 36.9744C176.645 37.3514 178.306 37.9417 178.306 39.9602C178.306 42.3859 175.853 43.2789 173.748 43.2789C171.171 43.2789 169.257 42.13 169.214 39.7194H171.476V39.7208ZM184.627 41.5013C182.755 41.5013 181.875 40.0827 181.875 38.477H181.877H189.398C189.768 35.4169 187.795 32.5109 184.567 32.5109C181.532 32.5109 179.636 34.9958 179.636 37.9073C179.636 41.0417 181.428 43.2804 184.627 43.2804C186.866 43.2804 188.754 42.0324 189.255 39.8062H187.118C186.723 40.9275 185.94 41.5013 184.627 41.5013ZM184.566 34.29C186.09 34.29 187.063 35.5765 187.139 36.9937H181.875C181.942 35.4747 183.042 34.29 184.566 34.29ZM193.308 39.7208C193.427 41.0252 194.409 41.4999 195.614 41.4999C196.464 41.4999 197.948 41.3237 197.891 40.1555C197.843 39.15 196.643 38.8982 195.273 38.6109C195.035 38.5609 194.791 38.5098 194.548 38.4535C192.89 38.1067 191.267 37.5124 191.267 35.4347C191.267 33.1947 193.683 32.5095 195.539 32.5095C197.634 32.5095 199.529 33.3777 199.811 35.6439H197.455C197.257 34.5816 196.37 34.2885 195.384 34.2885C194.727 34.2885 193.523 34.4509 193.523 35.3384C193.523 36.2825 194.741 36.5347 196.129 36.8223C196.364 36.8708 196.602 36.9204 196.842 36.9744C198.483 37.3514 200.142 37.9417 200.142 39.9602C200.142 42.3859 197.688 43.2789 195.587 43.2789C193.015 43.2789 191.093 42.13 191.059 39.7194H193.311L193.308 39.7208ZM207.19 35.2614C207.19 33.741 205.991 32.5109 204.486 32.5109H204.476C202.973 32.5109 201.748 33.7121 201.748 35.2614C201.748 36.8121 202.963 38.0285 204.476 38.0285C205.991 38.0285 207.19 36.7832 207.19 35.2614ZM202.279 35.2628C202.279 33.9818 203.269 32.9457 204.476 32.9457H204.485C205.709 32.9457 206.692 33.9832 206.692 35.2766C206.692 36.5699 205.709 37.606 204.485 37.5991C203.269 37.5991 202.279 36.5451 202.279 35.2628ZM203.472 36.8658H203.963V35.5463H204.296C204.695 35.5463 204.891 35.6893 204.962 36.0829C205.022 36.4847 205.094 36.7626 205.171 36.8658H205.68C205.637 36.764 205.559 36.585 205.492 36.1103C205.428 35.6577 205.245 35.4128 204.981 35.3605V35.3371C205.307 35.2463 205.578 34.9945 205.578 34.59C205.578 34.2997 205.475 34.0932 205.294 33.957C205.111 33.8236 204.803 33.7246 204.34 33.7246C203.97 33.7246 203.729 33.7576 203.472 33.7947V36.8658ZM204.311 35.1665H203.965V34.1277C203.977 34.1264 203.989 34.1249 204.001 34.1234C204.079 34.1141 204.174 34.1029 204.311 34.1029C204.868 34.1029 205.061 34.3726 205.061 34.6409C205.061 35.0206 204.723 35.1665 204.311 35.1665Z" fill="white"/>
</g>
</g>
</g>
<defs>
<clipPath id="clip0_17_2776">
<rect width="206.39" height="72" fill="white" transform="translate(0.799988 0.370117)"/>
</clipPath>
<clipPath id="clip1_17_2776">
<rect width="206.39" height="72" fill="white" transform="translate(0.799988 0.370117)"/>
</clipPath>
<clipPath id="clip2_17_2776">
<rect width="206.39" height="59.9971" fill="white" transform="translate(0.799988 6.37158)"/>
</clipPath>
</defs>
</svg>
