<svg version="1.1" id="Layer_1" xmlns="http://www.w3.org/2000/svg" xmlns:xlink="http://www.w3.org/1999/xlink" x="0px" y="0px"
	 width="100%" viewBox="0 0 2088 144" enable-background="new 0 0 2088 144" xml:space="preserve">
<path fill="#FFFFFF" opacity="1.000000" stroke="none" 
	d="
M2063.000000,145.000000 
	C1375.333496,145.000000 688.166992,145.000000 1.000369,145.000000 
	C1.000246,97.000175 1.000246,49.000351 1.000123,1.000395 
	C696.999695,1.000263 1392.999390,1.000263 2088.999268,1.000131 
	C2088.999512,48.999649 2088.999512,96.999298 2088.999756,144.999481 
	C2080.500000,145.000000 2072.000000,145.000000 2063.000000,145.000000 
M1664.500000,64.215263 
	C1169.199097,64.215263 673.898254,64.215263 178.331421,64.215263 
	C178.331421,66.923775 178.331421,70.135857 178.331421,73.595284 
	C179.964462,73.709824 181.258835,73.872169 182.554276,73.881088 
	C223.027542,74.159798 263.500793,74.633232 303.974304,74.655495 
	C562.077759,74.797470 820.181213,74.831680 1078.284668,74.946953 
	C1087.425781,74.951035 1096.565430,75.567200 1105.708130,75.659103 
	C1118.490112,75.787605 1131.274536,75.687431 1144.057861,75.691307 
	C1388.995605,75.765717 1633.933228,75.826157 1878.870972,75.948761 
	C1895.678711,75.957176 1912.485840,76.607208 1929.293823,76.634712 
	C1942.935669,76.657036 1956.577759,76.088173 1970.221191,75.992622 
	C1976.027832,75.951958 1981.841064,76.401031 1987.645996,76.722755 
	C1990.641724,76.888802 1991.733032,75.622719 1991.847534,72.634499 
	C1992.136597,65.082405 1991.516968,64.302849 1983.986694,64.300880 
	C1877.824463,64.273186 1771.662231,64.245155 1664.500000,64.215263 
z"/>
<path fill="#B0B1B4" opacity="1.000000" stroke="none" 
	d="
M1665.000000,64.216232 
	C1771.662231,64.245155 1877.824463,64.273186 1983.986694,64.300880 
	C1991.516968,64.302849 1992.136597,65.082405 1991.847534,72.634499 
	C1991.733032,75.622719 1990.641724,76.888802 1987.645996,76.722755 
	C1981.841064,76.401031 1976.027832,75.951958 1970.221191,75.992622 
	C1956.577759,76.088173 1942.935669,76.657036 1929.293823,76.634712 
	C1912.485840,76.607208 1895.678711,75.957176 1878.870972,75.948761 
	C1633.933228,75.826157 1388.995605,75.765717 1144.057861,75.691307 
	C1131.274536,75.687431 1118.490112,75.787605 1105.708130,75.659103 
	C1096.565430,75.567200 1087.425781,74.951035 1078.284668,74.946953 
	C820.181213,74.831680 562.077759,74.797470 303.974304,74.655495 
	C263.500793,74.633232 223.027542,74.159798 182.554276,73.881088 
	C181.258835,73.872169 179.964462,73.709824 178.331421,73.595284 
	C178.331421,70.135857 178.331421,66.923775 178.331421,64.215263 
	C673.898254,64.215263 1169.199097,64.215263 1665.000000,64.216232 
z"/>
</svg>