<svg width="26" height="17" viewBox="0 0 26 17" fill="none" xmlns="http://www.w3.org/2000/svg">
<g id="image" clip-path="url(#clip0_17_1336)">
<path id="icon-header-hamburger" d="M1.5 7.23541H24.5C25.1 7.23541 25.5 7.63541 25.5 8.23541C25.5 8.83541 25.1 9.23541 24.5 9.23541H1.5C0.9 9.23541 0.5 8.83541 0.5 8.23541C0.5 7.63541 0.9 7.23541 1.5 7.23541ZM1.5 0.235413H24.5C25.1 0.235413 25.5 0.635413 25.5 1.23541C25.5 1.83541 25.1 2.23541 24.5 2.23541H1.5C0.9 2.23541 0.5 1.83541 0.5 1.23541C0.5 0.635413 0.9 0.235413 1.5 0.235413ZM1.5 14.2354H24.5C25.1 14.2354 25.5 14.6354 25.5 15.2354C25.5 15.8354 25.1 16.2354 24.5 16.2354H1.5C0.9 16.2354 0.5 15.8354 0.5 15.2354C0.5 14.6354 0.9 14.2354 1.5 14.2354Z" fill="white"/>
</g>
<defs>
<clipPath id="clip0_17_1336">
<rect width="25" height="16" fill="white" transform="translate(0.5 0.235413)"/>
</clipPath>
</defs>
</svg>
