<svg width="246" height="101" viewBox="0 0 246 101" fill="none" xmlns="http://www.w3.org/2000/svg">
<path d="M6.75795 87.9049H8.93176V76.4354H6.75795V75.0483H12.8239C15.7223 75.0483 18.7657 75.214 18.7657 78.8784C18.7657 80.9073 17.5856 82.2737 15.536 82.46V82.5014C16.5297 82.6049 17.0473 83.0397 17.3579 83.6401C17.6891 84.2612 17.834 85.0065 18.1446 85.8139L18.745 87.9049H20.4012V89.3127H17.2336L16.2813 86.1451C15.5153 83.5987 15.2669 83.0811 12.5755 83.0811H10.8778V87.9049H13.0516V89.3127H6.75795V87.9049ZM10.8571 81.694H12.4513C14.6044 81.694 16.7161 81.694 16.7161 78.8784C16.7161 76.4354 14.3559 76.4354 12.4513 76.4354H10.8571V81.694Z" fill="white"/>
<path d="M26.3015 79.1265C29.5312 79.1265 31.5187 81.0725 31.5187 84.3229C31.5187 87.5733 29.5312 89.5194 26.3015 89.5194C23.0719 89.5194 21.0016 87.5733 21.0016 84.3229C21.0016 81.0725 23.0719 79.1265 26.3015 79.1265ZM26.3015 88.1322C28.5581 88.1322 29.5933 86.3932 29.5933 84.3436C29.5933 82.294 28.5374 80.555 26.3015 80.555C24.0656 80.555 22.9269 82.294 22.9269 84.3436C22.9269 86.3932 24.0656 88.1322 26.3015 88.1322Z" fill="white"/>
<path d="M43.899 80.7414H42.8018L38.7233 90.2441C37.9987 91.9417 37.5225 93.1218 35.4936 93.1218C35.0382 93.1218 34.5827 93.0596 34.1272 92.9975V91.6518C34.4585 91.6726 34.8104 91.7347 35.1831 91.7347C36.6944 91.7347 36.7565 90.4925 37.3569 89.3124L33.4855 80.7621H32.3882V79.375H37.3569V80.7621H35.4315L38.2885 87.4284L41.1041 80.7621H39.1788V79.375H43.8783L43.899 80.7414Z" fill="white"/>
<path d="M51.8697 87.2422H51.8283C51.3935 88.8156 50.0892 89.5195 48.4951 89.5195C46.5076 89.5195 44.5822 88.6707 44.5822 86.4348C44.5822 83.4122 47.5428 83.2258 49.9443 83.2258H51.8697V82.6255C51.8697 81.0313 51.0416 80.5138 49.4681 80.5138C48.1225 80.5138 47.0045 80.8036 46.8803 82.2114H44.9549C45.0791 79.9134 47.0873 79.106 49.2404 79.106C51.6005 79.106 53.6708 79.6028 53.6708 82.1907V87.884H55.4099V89.2918H51.8697V87.2422ZM48.7021 88.1324C50.8966 88.1324 51.8697 86.5383 51.8697 84.6336H50.3584C49.0748 84.6336 46.4869 84.6336 46.4869 86.4555C46.5076 87.7598 47.6463 88.1324 48.7021 88.1324Z" fill="white"/>
<path d="M56.6521 87.9049H58.3704V76.4354H56.6521V75.0483H60.1716V87.9256H61.8899V89.3127H56.6521V87.9049Z" fill="white"/>
<path d="M82.303 80.141H80.6468C80.3984 77.5531 78.8663 76.2074 76.3406 76.2074C73.0695 76.2074 71.1441 78.1535 71.1441 82.1699C71.1441 85.6066 72.8832 88.1323 76.3406 88.1323C78.4523 88.1323 80.3155 86.8073 80.3155 84.4679H82.3651C82.3651 88.0909 79.5081 89.5194 76.3406 89.5194C71.5789 89.5194 69.0945 86.7452 69.0945 82.1699C69.0945 77.5945 71.5789 74.8203 76.3406 74.8203C77.6242 74.8203 79.7773 75.4207 80.6054 76.8078H80.6468V75.048H82.303V80.141Z" fill="white"/>
<path d="M91.1432 87.2422H91.1018C90.667 88.8156 89.3627 89.5195 87.7686 89.5195C85.7811 89.5195 83.8557 88.6707 83.8557 86.4348C83.8557 83.4122 86.8163 83.2258 89.2178 83.2258H91.1432V82.6255C91.1432 81.0313 90.3151 80.5138 88.7416 80.5138C87.3959 80.5138 86.278 80.8036 86.1538 82.2114H84.2284C84.3526 79.9134 86.3608 79.106 88.5139 79.106C90.874 79.106 92.9443 79.6028 92.9443 82.1907V87.884H94.6834V89.2918H91.1432V87.2422ZM87.9963 88.1324C90.1908 88.1324 91.1639 86.5383 91.1639 84.6336H89.6526C88.369 84.6336 85.8018 84.6336 85.8018 86.4555C85.7811 87.7598 86.9198 88.1324 87.9963 88.1324Z" fill="white"/>
<path d="M95.5943 87.9045H97.3127V80.7413H95.5943V79.3542H99.1138V81.3831H99.1552C99.4658 79.8718 100.708 79.1265 102.219 79.1265C102.551 79.1265 102.778 79.1472 103.027 79.1679V80.6378C102.737 80.5964 102.364 80.5343 101.95 80.5343C99.4451 80.5343 99.1138 83.1842 99.1138 85.2131V87.9252H101.163V89.333H95.5943V87.9045Z" fill="white"/>
<path d="M104.186 87.9046H105.904V80.7414H104.186V79.3543H107.706V87.9046H109.424V89.3124H104.186V87.9046ZM107.706 77.0769H105.656V75.0273H107.706V77.0769Z" fill="white"/>
<path d="M110.749 87.9049H112.488V76.4354H110.749V75.0483H114.289V81.1764H114.33C114.889 79.8928 116.421 79.1475 117.788 79.1475C120.873 79.1475 122.694 81.1557 122.694 84.344C122.694 87.5322 120.955 89.5404 117.788 89.5404C116.401 89.5404 114.827 88.7537 114.33 87.2838H114.289V89.3127H110.749V87.9049ZM117.788 88.1326C119.693 88.1326 120.769 86.5799 120.769 84.344C120.769 82.3358 119.713 80.5553 117.788 80.5553C115.366 80.5553 114.289 82.3358 114.289 84.344C114.289 86.5799 115.407 88.1326 117.788 88.1326Z" fill="white"/>
<path d="M123.44 87.9049H125.179V76.4354H123.44V75.0483H126.98V81.1764H127.021C127.58 79.8928 129.112 79.1475 130.458 79.1475C133.543 79.1475 135.365 81.1557 135.365 84.344C135.365 87.5322 133.626 89.5404 130.458 89.5404C129.071 89.5404 127.498 88.7537 127.021 87.2838H126.98V89.3127H123.44V87.9049ZM130.479 88.1326C132.383 88.1326 133.46 86.5799 133.46 84.344C133.46 82.3358 132.404 80.5553 130.479 80.5553C128.057 80.5553 126.98 82.3358 126.98 84.344C126.98 86.5799 128.098 88.1326 130.479 88.1326Z" fill="white"/>
<path d="M138.781 84.8405C138.781 87.1385 140.064 88.1322 142.404 88.1322C143.542 88.1322 145.116 87.5112 145.219 86.2069H146.876C146.813 88.6498 144.246 89.5194 142.155 89.5194C138.926 89.5194 136.855 87.5733 136.855 84.3229C136.855 81.0725 138.926 79.1265 142.155 79.1265C145.695 79.1265 146.938 81.6315 146.958 84.8198L138.781 84.8405ZM145.157 83.4327C145.054 81.6108 143.956 80.5343 142.01 80.5343C140.292 80.5343 138.76 81.6108 138.76 83.4327H145.157Z" fill="white"/>
<path d="M155.84 87.2422H155.799C155.364 88.8156 154.059 89.5195 152.465 89.5195C150.478 89.5195 148.552 88.6707 148.552 86.4348C148.552 83.4122 151.513 83.2258 153.915 83.2258H155.84V82.6255C155.84 81.0313 155.012 80.5138 153.438 80.5138C152.093 80.5138 150.975 80.8036 150.85 82.2114H148.925C149.049 79.9134 151.058 79.106 153.211 79.106C155.571 79.106 157.641 79.6028 157.641 82.1907V87.884H159.38V89.2918H155.84V87.2422ZM152.693 88.1324C154.888 88.1324 155.861 86.5383 155.861 84.6336H154.349C153.066 84.6336 150.478 84.6336 150.478 86.4555C150.478 87.7598 151.617 88.1324 152.693 88.1324Z" fill="white"/>
<path d="M160.291 87.9048H162.009V80.7416H160.291V79.3545H163.811V81.1763H163.852C164.328 79.9135 165.715 79.1475 167.185 79.1475C169.669 79.1475 170.725 80.3896 170.725 82.7705V87.9255H172.444V89.3333H167.206V87.9255H168.924V83.1431C168.924 81.549 168.386 80.5553 166.626 80.5553C164.701 80.5553 163.79 81.901 163.79 83.6814V87.9255H165.508V89.3333H160.27L160.291 87.9048Z" fill="white"/>
<path d="M192.463 80.1206H190.828C190.662 77.6362 189.213 76.2077 186.708 76.2077C183.437 76.2077 181.512 78.1538 181.512 82.1702C181.512 85.6068 183.251 88.1326 186.708 88.1326C189.337 88.1326 190.911 86.2072 190.89 83.6815H188.468V82.2737H194.596V83.6815H192.67V89.3127H190.89V87.2838H190.849C190.02 88.5881 188.281 89.5404 186.729 89.5404C181.967 89.5404 179.483 86.7662 179.483 82.1909C179.483 77.6155 181.967 74.8413 186.729 74.8413C188.178 74.8413 190.062 75.5245 190.787 76.8495H190.828V75.069H192.484L192.463 80.1206Z" fill="white"/>
<path d="M195.672 87.9045H197.391V80.7413H195.672V79.3542H199.192V81.3831H199.233C199.544 79.8718 200.786 79.1265 202.297 79.1265C202.629 79.1265 202.856 79.1472 203.105 79.1679V80.6378C202.815 80.5964 202.442 80.5343 202.028 80.5343C199.523 80.5343 199.192 83.1842 199.192 85.2131V87.9252H201.241V89.333H195.672V87.9045Z" fill="white"/>
<path d="M209.15 79.1265C212.38 79.1265 214.367 81.0725 214.367 84.3229C214.367 87.5733 212.38 89.5194 209.15 89.5194C205.92 89.5194 203.85 87.5733 203.85 84.3229C203.85 81.0725 205.92 79.1265 209.15 79.1265ZM209.15 88.1322C211.407 88.1322 212.442 86.3932 212.442 84.3436C212.442 82.294 211.386 80.555 209.15 80.555C206.914 80.555 205.775 82.294 205.775 84.3436C205.775 86.3932 206.914 88.1322 209.15 88.1322Z" fill="white"/>
<path d="M225.526 87.9046H227.244V89.3124H223.725V87.5941H223.684C223.29 88.8155 221.862 89.5402 220.433 89.5402C217.866 89.5402 216.81 88.2566 216.81 85.9171V80.7621H215.092V79.375H218.611V85.5445C218.611 87.1386 219.108 88.1323 220.909 88.1323C222.855 88.1323 223.746 86.8281 223.746 85.0062V80.7621H222.027V79.375H225.547V87.9046H225.526Z" fill="white"/>
<path d="M227.7 91.5071H229.439V80.7416H227.7V79.3545H231.24V81.342H231.281C231.778 80.0584 233.083 79.1475 234.739 79.1475C237.824 79.1475 239.645 81.1556 239.645 84.3439C239.645 87.5322 237.906 89.5403 234.739 89.5403C233.186 89.5403 231.944 88.8157 231.281 87.4079H231.24V91.5278H232.979V92.9149H227.7V91.5071ZM234.718 88.1325C236.623 88.1325 237.699 86.5798 237.699 84.3439C237.699 82.3357 236.644 80.5553 234.718 80.5553C232.296 80.5553 231.219 82.3357 231.219 84.3439C231.219 86.5798 232.337 88.1325 234.718 88.1325Z" fill="white"/>
<path d="M149.774 35.1744C149.774 49.8528 137.87 61.757 123.191 61.757C108.513 61.757 96.6295 49.8528 96.6295 35.1744C96.6295 20.496 108.513 8.5918 123.191 8.5918C137.87 8.5918 149.774 20.496 149.774 35.1744Z" fill="#001791"/>
<path d="M123.191 8.59169C137.87 8.59169 149.774 20.4959 149.774 35.1743C149.774 49.8527 137.87 61.7569 123.191 61.7569C108.513 61.7569 96.6088 49.8527 96.6088 35.1743C96.6088 20.4959 108.513 8.59169 123.191 8.59169ZM123.191 7.61865C107.995 7.61865 95.6357 19.9783 95.6357 35.1743C95.6357 50.3703 107.995 62.7299 123.191 62.7299C138.387 62.7299 150.747 50.3703 150.747 35.1743C150.747 19.9783 138.387 7.61865 123.191 7.61865Z" fill="#D4BA73"/>
<path d="M129.775 24.5331L132.135 26.6862L128.843 29.7088L125.489 26.6241L128.098 24.2225L123.212 19.73L118.326 24.2225L120.935 26.6241L117.581 29.7088L114.289 26.6862L116.649 24.5331L109.01 20.91L109.983 30.9303H136.503L137.456 20.91L129.775 24.5331Z" fill="#D4BA73"/>
<path d="M110.086 32.5244L110.397 35.6713H120.314V46.9544L115.014 44.4286L117.146 42.4618L110.749 39.4185L111.432 46.5403L123.191 52.1301L134.951 46.5403L135.634 39.4185L129.237 42.4618L131.369 44.4286L126.069 46.9544V35.6713H135.986L136.296 32.5244H110.086Z" fill="#D4BA73"/>
<path d="M146.399 56.105C147.683 56.105 148.656 57.078 148.656 58.3616C148.656 59.6452 147.724 60.6803 146.399 60.6803C145.074 60.6803 144.143 59.6452 144.143 58.3616C144.163 57.078 145.095 56.105 146.399 56.105ZM146.399 60.5147C147.621 60.5147 148.47 59.5417 148.47 58.3616C148.47 57.1815 147.621 56.2706 146.399 56.2706C145.199 56.2706 144.329 57.1815 144.329 58.3616C144.35 59.5624 145.178 60.5147 146.399 60.5147ZM145.592 57.2436H146.586C147.062 57.2436 147.31 57.4921 147.31 57.8854C147.31 58.2374 147.083 58.4858 146.731 58.5479L147.331 59.4796H147.124L146.524 58.5686H145.758V59.4796H145.571V57.2436H145.592ZM145.778 57.4093V58.403H146.586C146.958 58.403 147.145 58.1753 147.145 57.8854C147.145 57.5956 146.958 57.3886 146.586 57.3886H145.778V57.4093Z" fill="#D4BA73"/>
</svg>
