<svg width="156" height="42" viewBox="0 0 156 42" fill="none" xmlns="http://www.w3.org/2000/svg">
<g id="royal-caribbean-logo-border.svg" clip-path="url(#clip0_17_1340)">
<g id="logo-border">
<path id="Fill-1" d="M0.528015 40.1638V1.27975H154.979V40.0651L0.528015 40.1638Z" fill="#0072BA" stroke="white" stroke-opacity="0.5" stroke-width="0.986905"/>
<path id="Fill-2" d="M1.02148 39.6703H38.4252V1.7732H1.02148V39.6703Z" fill="#041556"/>
<path id="Fill-3" d="M38.4252 39.6703H154.485V28.0249H38.4252V39.6703Z" fill="#FDBB11"/>
<path id="Fill-8" d="M77.0132 33.0581H77.6053C78.2961 33.0581 78.6909 32.762 78.6909 32.2686C78.6909 31.7751 78.2961 31.479 77.704 31.479H77.0132V33.0581ZM76.3223 30.7882H77.6053C78.5922 30.7882 79.5791 30.9856 79.5791 32.1699C79.5791 32.762 79.0857 33.2555 78.4935 33.3542C78.6909 33.4529 78.7896 33.5515 78.987 33.8476L79.9739 35.9201H79.1843L78.3948 34.1437C78.1974 33.6502 77.9014 33.6502 77.5066 33.6502H77.0132V35.9201H76.3223V30.7882Z" fill="#041556"/>
<path id="Fill-10" d="M84.8097 30.7882H85.7966L88.0665 35.0319V30.7882H88.856V36.0188H87.8691L85.5992 31.7751H85.5005V36.0188H84.8097V30.7882Z" fill="#041556"/>
<path id="Fill-12" d="M96.0604 31.5777L95.0735 34.1437H97.146L96.0604 31.5777ZM95.7643 30.7882H96.5539L98.725 36.0188H97.9355L97.4421 34.7358H94.9748L94.4814 36.0188H93.6918L95.7643 30.7882Z" fill="#041556"/>
<path id="Fill-14" d="M103.857 31.479H102.278V30.7882H106.226V31.479H104.646V36.0188H103.857V31.479Z" fill="#041556"/>
<path id="Fill-16" d="M110.864 36.0188H111.653V30.7882H110.864V36.0188Z" fill="#041556"/>
<path id="Fill-18" d="M119.154 35.4267C120.338 35.4267 120.832 34.4398 120.832 33.3542C120.832 32.2686 120.24 31.2817 119.154 31.2817C118.068 31.2817 117.476 32.2686 117.476 33.3542C117.476 34.4398 117.97 35.4267 119.154 35.4267ZM119.154 30.7882C120.733 30.7882 121.621 31.9725 121.621 33.4528C121.621 35.0319 120.733 36.1175 119.154 36.1175C117.575 36.1175 116.687 35.0319 116.687 33.4528C116.687 31.8738 117.575 30.7882 119.154 30.7882Z" fill="#041556"/>
<path id="Fill-19" d="M126.654 30.7882H127.641L129.911 35.0319V30.7882H130.602V36.0188H129.714L127.345 31.7751V36.0188H126.654V30.7882Z" fill="#041556"/>
<path id="Fill-20" d="M137.905 31.5777L136.918 34.1437H138.991L137.905 31.5777ZM137.51 30.7882H138.3L140.471 36.0188H139.682L139.188 34.7358H136.721L136.227 36.0188H135.438L137.51 30.7882Z" fill="#041556"/>
<path id="Fill-21" d="M145.208 30.7882H145.899V35.328H148.07V36.0188H145.208V30.7882Z" fill="#041556"/>
<path id="Fill-22" d="M19.7726 6.60904C21.1543 7.89202 22.6347 9.27368 23.9176 10.6553L22.4373 12.6292V12.7278L26.4836 14.5043L29.2469 12.6292L27.5692 10.754V10.6553C29.2469 9.47106 30.7273 8.28678 32.3063 7.20118L31.5168 15.4912H8.02848L7.23895 7.20118C8.91669 8.28678 10.2984 9.47106 11.9761 10.6553V10.754L10.2984 12.6292L13.0617 14.5043L17.108 12.7278V12.6292L15.6276 10.6553C16.8119 9.27368 18.391 7.89202 19.7726 6.60904Z" fill="#FEFEFE"/>
<path id="Fill-23" d="M31.3195 16.9715L31.1221 19.7349H22.4373V29.2091H26.681C27.6679 29.2091 28.6548 28.2222 28.4574 27.5314C28.2601 26.5445 27.3718 25.9524 26.5823 25.4589C26.7797 25.4589 29.6417 23.2877 31.0234 22.3995C30.9247 22.9916 30.0365 30.7882 29.9378 30.8869L19.7727 34.7358H19.5753L9.60756 30.8869C9.60756 30.7882 8.62065 22.9916 8.52196 22.3995C9.90363 23.2877 12.7657 25.4589 12.963 25.4589C12.1735 25.9524 11.2853 26.5445 11.0879 27.5314C10.8905 28.2222 11.8774 29.2091 12.8643 29.2091H17.108V19.7349H8.42327L8.22589 16.9715H31.3195Z" fill="#FEFEFE"/>
<path id="Fill-24" d="M46.4191 14.3069C48.0968 14.3069 50.0706 13.5174 50.0706 11.5436C50.0706 9.47105 48.2942 8.68153 46.4191 8.68153V14.3069ZM44.84 12.037C44.84 9.37236 44.7413 8.87891 42.7675 8.78022V8.48415L47.0112 8.38546C51.4523 8.28677 51.7483 10.458 51.7483 11.2475C51.7483 12.7278 50.8601 13.6161 49.5772 14.1095L49.6758 14.2082C51.0575 16.5768 52.7352 19.6362 55.5973 20.2283L55.4986 20.5244C53.6235 20.4257 52.2418 20.5244 51.2549 19.4388C50.0706 18.2545 49.1824 16.6755 48.7876 15.8859C48.0968 14.4056 47.5047 14.8003 46.2217 14.603V17.465C46.2217 19.4388 46.2217 19.7349 48.6889 20.1296V20.4257H42.5701V20.1296C44.6426 19.8336 44.6426 19.3401 44.7413 17.465L44.84 12.037Z" fill="#FEFEFE"/>
<path id="Fill-25" d="M58.1632 12.8265C56.2881 12.8265 55.4986 14.8003 55.4986 16.4781C55.4986 18.1558 56.3868 20.2283 58.2619 20.2283C60.0384 20.2283 60.8279 18.1558 60.8279 16.6755C60.9266 14.9977 60.1371 12.8265 58.1632 12.8265ZM58.1632 20.5244C55.7947 20.5244 53.8209 18.9453 53.8209 16.4781C53.8209 14.0108 55.7947 12.3331 58.1632 12.3331C60.5318 12.3331 62.4069 13.9121 62.4069 16.3794C62.5056 18.8467 60.5318 20.5244 58.1632 20.5244Z" fill="#FEFEFE"/>
<path id="Fill-26" d="M63.0978 14.2082C62.8017 13.4187 62.703 13.2213 61.8148 13.1226V12.8265H65.4664V13.1226C64.1834 13.2213 64.4795 14.0108 64.8742 14.899L66.552 19.4388L67.6376 16.2807C68.4271 14.0108 68.5258 13.32 67.2428 13.2213V12.9252H70.3022V13.2213C69.5127 13.32 69.3153 13.6161 68.9205 14.3069L68.2297 15.8859L65.5651 22.6956C64.8742 24.3733 64.4795 24.8668 63.7886 24.8668C63.2952 24.8668 62.9004 24.472 62.9004 23.9786C62.9004 23.5838 63.0978 23.2877 63.4926 23.189C63.6899 23.2877 64.1834 23.6825 64.3808 23.6825C64.7755 23.6825 65.0716 22.6956 65.1703 22.4982L65.7624 21.1165L63.0978 14.2082Z" fill="#FEFEFE"/>
<path id="Fill-27" d="M71.3878 17.5637C71.2891 17.761 71.2891 18.0571 71.2891 18.2545C71.2891 19.044 71.6838 19.6362 72.4734 19.6362C72.9668 19.6362 73.4603 19.3401 73.7563 18.9453V16.2807L71.3878 17.5637ZM73.7563 15.9846C73.855 14.0108 73.3616 13.2213 71.9799 13.2213C70.7956 13.2213 70.8943 13.8134 70.8943 14.8003L70.1048 14.899C70.0061 14.899 69.71 14.899 69.71 14.7016C69.71 14.2082 71.6838 12.4318 73.0655 12.4318C74.6445 12.4318 75.138 13.7147 75.138 15.0964V17.5637C75.138 19.1427 75.0393 20.1296 76.6184 19.8335V20.2283C75.9275 20.4257 75.3354 20.5244 74.8419 20.5244C74.1511 20.5244 73.855 20.1296 73.7563 19.4388C73.1642 20.0309 72.4734 20.6231 71.4865 20.6231C70.4009 20.6231 69.71 19.6362 69.71 18.6493C69.71 18.3532 69.71 18.1558 69.8087 17.8597L73.7563 15.9846Z" fill="#FEFEFE"/>
<path id="Fill-28" d="M75.8289 20.4257V20.0309C77.0131 19.9323 77.2105 19.6362 77.2105 18.4519V10.9514C77.2105 10.1619 77.2105 9.96451 76.3223 9.37237V9.0763L78.2961 8.28677L78.4935 8.38546V18.3532C78.4935 19.8336 78.5922 19.9322 79.8752 20.1296V20.4257H75.8289Z" fill="#FEFEFE"/>
<path id="Fill-29" d="M94.0866 17.5637C93.9879 17.761 93.9879 18.0571 93.9879 18.2545C93.9879 19.044 94.3826 19.6362 95.1721 19.6362C95.6656 19.6362 96.159 19.3401 96.4551 18.9453V16.2807L94.0866 17.5637ZM96.4551 15.9846C96.5538 14.0108 96.0604 13.2213 94.6787 13.2213C93.4944 13.2213 93.5931 13.8134 93.5931 14.8003L92.8036 14.899C92.7049 14.899 92.4088 14.899 92.4088 14.7016C92.4088 14.2082 94.2839 12.4318 95.7643 12.4318C97.3433 12.4318 97.8368 13.7147 97.8368 15.0964V17.5637C97.8368 19.1427 97.6394 20.2283 99.3171 19.8335V20.2283C98.6263 20.4257 98.0342 20.5244 97.5407 20.5244C96.8499 20.5244 96.5538 20.1296 96.4551 19.4388C95.863 20.0309 95.1721 20.6231 94.1852 20.6231C93.0996 20.6231 92.4088 19.6362 92.4088 18.6493C92.4088 18.3532 92.4088 18.1558 92.5075 17.8597L96.4551 15.9846Z" fill="#FEFEFE"/>
<path id="Fill-30" d="M91.3232 12.037H91.0272C90.7311 10.0632 89.5468 8.58284 87.4743 8.58284C84.3162 8.58284 82.4411 11.2475 82.4411 14.3069C82.4411 17.7611 85.1057 20.2283 87.573 20.2283C89.8429 20.2283 90.7311 18.5506 91.5206 16.5768L91.718 16.6755C91.5206 17.7611 91.2245 18.8467 90.7311 19.8336C89.6455 20.4257 88.3625 20.6231 87.1782 20.6231C83.5267 20.6231 80.2699 18.4519 80.2699 14.5043C80.2699 11.3462 82.7372 8.18808 87.2769 8.18808C88.5599 8.18808 89.9416 8.48415 91.1258 9.17498V12.037H91.3232Z" fill="#FEFEFE"/>
<path id="Fill-31" d="M135.734 17.5637C135.635 17.761 135.635 18.0571 135.635 18.2545C135.635 19.044 136.03 19.6362 136.82 19.6362C137.313 19.6362 137.806 19.3401 138.103 18.9453V16.2807L135.734 17.5637ZM138.103 15.9846C138.201 14.0108 137.708 13.2213 136.326 13.2213C135.142 13.2213 135.24 13.8134 135.24 14.8003L134.352 14.899C134.254 14.899 133.958 14.899 133.958 14.7016C133.958 14.2082 135.931 12.4318 137.313 12.4318C138.892 12.4318 139.385 13.7147 139.385 15.0964V17.5637C139.385 19.1427 139.089 20.1296 140.767 20.0309V20.327C140.076 20.5244 139.682 20.5244 139.188 20.5244C138.497 20.5244 138.201 20.1296 138.103 19.4388C137.51 20.0309 136.82 20.6231 135.833 20.6231C134.747 20.6231 134.056 19.6362 134.056 18.6493C134.056 18.3532 134.056 18.1558 134.155 17.8597L138.103 15.9846Z" fill="#FEFEFE"/>
<path id="Fill-32" d="M101.291 18.3532C101.291 19.8335 101.39 19.9322 103.067 20.1296V20.4257H98.725V20.0309C99.9093 19.9322 100.008 19.6362 100.008 18.2545V14.9977C100.008 14.2082 100.008 14.0108 99.1198 13.4187V13.2213L101.192 12.4318L101.39 12.5305L101.291 14.603C101.686 13.7147 102.673 12.4318 103.758 12.4318C104.252 12.4318 104.646 12.7278 104.646 13.2213C104.646 13.7147 104.153 14.1095 103.758 14.3069C103.462 14.1095 103.067 13.7147 102.673 13.7147C101.192 13.8134 101.291 16.2807 101.291 16.4781V18.3532Z" fill="#FEFEFE"/>
<path id="Fill-33" d="M108.002 9.47105C108.002 9.96451 107.607 10.3593 107.114 10.3593C106.62 10.3593 106.225 9.96451 106.225 9.47105C106.225 8.9776 106.62 8.58284 107.114 8.58284C107.607 8.58284 108.002 8.9776 108.002 9.47105ZM105.14 20.4257V20.1296C106.423 19.9322 106.522 19.7349 106.522 18.3532V14.9977C106.522 14.2082 106.522 14.0108 105.436 13.4187V13.2213L107.706 12.4318L107.903 12.5305V18.3532C107.903 19.8336 108.002 19.9322 109.285 20.1296V20.4257H105.14Z" fill="#FEFEFE"/>
<path id="Fill-34" d="M111.259 16.7742C111.259 18.4519 111.456 20.0309 113.43 20.0309C114.417 20.0309 115.996 19.2414 115.996 16.7742C115.996 14.603 114.614 13.32 112.936 13.32C112.344 13.32 111.851 13.5174 111.357 13.7147L111.259 16.7742ZM109.877 10.8527C109.877 10.0632 109.877 9.86582 108.989 9.27368V9.0763L110.963 8.28677L111.16 8.38546V13.4187C112.048 12.9252 113.134 12.4318 114.121 12.4318C116.095 12.4318 117.378 14.2082 117.378 16.0833C117.378 19.2414 114.515 20.6231 112.64 20.6231C111.555 20.6231 110.765 20.327 109.877 19.9323V10.8527Z" fill="#FEFEFE"/>
<path id="Fill-35" d="M119.647 16.7742C119.647 18.4519 119.845 20.0309 121.819 20.0309C122.806 20.0309 124.385 19.2414 124.385 16.7742C124.385 14.603 123.003 13.32 121.325 13.32C120.733 13.32 120.24 13.5174 119.746 13.7147L119.647 16.7742ZM118.266 10.8527C118.266 10.0632 118.266 9.86582 117.378 9.27368V9.0763L119.351 8.28677L119.549 8.38546V13.4187C120.437 12.9252 121.523 12.4318 122.509 12.4318C124.483 12.4318 125.766 14.2082 125.766 16.0833C125.766 19.2414 122.904 20.6231 121.029 20.6231C119.944 20.6231 119.154 20.327 118.266 19.9323V10.8527Z" fill="#FEFEFE"/>
<path id="Fill-36" d="M131.589 14.5043C131.392 13.7147 130.898 12.7278 130.01 12.7278C129.023 12.7278 128.431 13.7147 128.234 14.603L131.589 14.5043ZM128.135 15.8859C128.036 17.761 129.22 19.4388 131.194 19.4388C132.082 19.4388 132.773 19.044 133.267 18.3532L133.563 18.5506C132.872 19.7349 131.688 20.6231 130.306 20.6231C128.135 20.6231 126.654 18.8466 126.654 16.6755C126.654 14.4056 128.234 12.4318 130.602 12.4318C132.181 12.4318 133.267 13.4187 133.267 14.9977H128.234L128.135 15.8859Z" fill="#FEFEFE"/>
<path id="Fill-37" d="M141.557 14.9977C141.557 14.2082 141.557 14.0108 140.669 13.4187V13.2213L142.741 12.4318L142.938 12.5305L142.84 13.8134C143.827 13.0239 144.814 12.4318 145.899 12.4318C147.972 12.4318 148.07 14.2082 148.07 15.1951V18.3532C148.07 19.8335 148.169 19.9322 149.452 20.1296V20.4257H145.406V20.1296C146.689 19.9322 146.787 19.7349 146.787 18.3532V16.2807C146.787 14.9977 146.886 13.32 144.715 13.32C144.024 13.32 143.531 13.5174 142.938 14.1095V18.3532C142.938 19.8335 143.037 19.9322 144.32 20.1296V20.4257H140.175V20.1296C141.458 20.0309 141.557 19.7349 141.557 18.3532V14.9977Z" fill="#FEFEFE"/>
<path id="Fill-4" d="M44.9387 36.0188H45.6296V30.7882H44.9387V36.0188Z" fill="#041556"/>
<path id="Fill-5" d="M50.9589 30.7882H51.9458L54.2157 35.0319V30.7882H55.0052V36.0188H54.0183L51.6497 31.7751V36.0188H50.9589V30.7882Z" fill="#041556"/>
<path id="Fill-6" d="M61.2227 31.479H59.6436V30.7882H63.5912V31.479H62.0122V36.0188H61.2227V31.479Z" fill="#041556"/>
<path id="Fill-7" d="M68.3284 30.7882H71.1904V31.479H69.0192V32.9594H70.993V33.6502H69.0192V35.328H71.1904V36.0188H68.3284V30.7882Z" fill="#041556"/>
</g>
</g>
<defs>
<clipPath id="clip0_17_1340">
<rect width="155.931" height="41.45" fill="white" transform="translate(0.0345459 0.095459)"/>
</clipPath>
</defs>
</svg>
