<svg width="207" height="73" viewBox="0 0 207 73" fill="none" xmlns="http://www.w3.org/2000/svg">
<g clip-path="url(#clip0_17_2772)">
<g clip-path="url(#clip1_17_2772)">
<g clip-path="url(#clip2_17_2772)">
<path fill-rule="evenodd" clip-rule="evenodd" d="M0.409973 62.6622V10.4053H206.8V62.6622H0.409973ZM1.39907 61.5082H50.5239V11.3943H1.39907V61.5082ZM51.5129 61.5082H205.811V46.6719H51.5129V61.5082ZM51.5129 45.6828H205.811V11.3943H51.5129V45.6828ZM60.7443 57.5505H59.7552V50.462H60.7443V57.5505ZM67.6678 50.462H69.1518L72.1192 56.0669V50.462H73.1079V57.5505H71.789L68.6572 51.7808V57.5505H67.6678V50.462ZM79.3721 51.2863H81.5152V57.5505H82.5046V51.2863H84.6471V50.462H79.3721V51.2863ZM90.9113 50.462H94.868V51.2863H92.0651V53.4293H94.5378V54.2536H92.0651V56.5615H94.868V57.5505H90.9113V50.462ZM103.44 53.5942H102.616V51.4511H103.605C104.429 51.4511 104.924 51.7808 104.924 52.4403C104.924 53.2645 104.429 53.5942 103.44 53.5942ZM103.275 50.462H101.627V57.3857H102.616V54.2536H103.11C103.605 54.2536 103.935 54.2536 104.264 54.9129L105.253 57.3857H106.407L105.088 54.5833C104.924 54.2536 104.759 54.0887 104.429 53.9239C105.253 53.759 105.913 53.0996 105.913 52.2754C105.913 50.6269 104.594 50.462 103.275 50.462ZM113.166 50.462H114.32L117.452 56.0669V50.462H118.442V57.5505H117.123L113.99 51.7808V57.5505H113.166V50.462ZM126.848 54.9129L128.167 51.4511L129.486 54.9129H126.848ZM128.662 50.462H127.673L124.87 57.5505H125.859L126.519 55.7372H129.981L130.64 57.5505H131.629L128.662 50.462ZM138.553 51.2863H136.41V50.462H141.685V51.2863H139.542V57.5505H138.553V51.2863ZM148.938 57.5505H147.949V50.462H148.938V57.5505ZM158.994 56.7262C160.478 56.7262 161.137 55.4074 161.137 53.9238C161.137 52.605 160.313 51.1214 158.994 51.1214C157.511 51.1214 156.686 52.4401 156.686 53.9238C156.686 55.4074 157.346 56.7262 158.994 56.7262ZM158.994 50.2971C161.137 50.2971 162.291 51.9456 162.291 53.9238C162.291 56.0668 160.972 57.5505 158.994 57.5505C156.851 57.5505 155.697 56.0668 155.697 53.9238C155.697 51.9456 156.851 50.2971 158.994 50.2971ZM170.369 50.462H169.05V57.5505H170.039V51.7808L173.171 57.5505H174.49V50.462H173.335V56.0669L170.369 50.462ZM184.051 51.4511L182.732 54.9129H185.37L184.051 51.4511ZM183.556 50.462H184.546L187.513 57.5505H186.524L185.864 55.7372H182.403L181.743 57.5505H180.754L183.556 50.462ZM194.766 50.462H193.942V57.5505H197.733V56.5615H194.766V50.462ZM25.9616 17.6572C26.4124 18.1079 26.8734 18.5587 27.3369 19.0121C28.7381 20.3823 30.1629 21.7756 31.4016 23.262L29.4234 25.8996V26.0645L34.8634 28.5372L38.4901 25.8996L36.3471 23.4269V23.262C38.4901 21.6136 40.4683 20.1299 42.7761 18.4814L41.6222 29.6911H10.301L9.14706 18.4814C10.9153 19.6182 12.49 20.8517 14.0936 22.1078C14.583 22.4911 15.0751 22.8766 15.5762 23.262V23.4269L13.4331 25.8996L17.0598 28.5372L22.4998 26.0645V25.8996L20.3568 23.262L25.9616 17.6572ZM41.4432 31.8341L41.4575 31.6693V31.8341H41.4432ZM10.9606 31.8341H41.4432L41.1278 35.4608H29.5884V48.319H35.3581C36.6769 48.319 37.9957 47.0002 37.666 46.0111C37.3363 44.6923 36.1824 43.8681 35.1933 43.2087C35.2714 43.2087 36.2002 42.5429 37.349 41.7194C38.6254 40.8045 40.1734 39.6948 41.1278 39.0875C40.9629 39.9117 39.809 50.2972 39.809 50.6269L26.2915 55.902H26.1266L12.6091 50.6269C12.6091 50.576 12.4831 49.5333 12.3091 48.0924C11.9199 44.8703 11.2903 39.6571 11.2903 39.0875C13.1036 40.4063 17.06 43.2087 17.2248 43.2087C16.2357 43.8681 15.0818 44.6923 14.7521 46.0111C14.4224 46.8354 15.7412 48.319 17.06 48.319H22.8297V35.4608H11.2903L10.9606 31.8341ZM61.5686 28.0427C63.7116 28.0427 66.3492 26.8887 66.3492 24.2512C66.3492 21.4487 63.8765 20.2948 61.5686 20.4597V28.0427ZM59.5904 25.0754C59.5904 21.4487 59.4256 20.7894 56.9528 20.6245V20.2948L62.7226 20.13C68.6572 19.9651 69.1518 22.9323 69.1518 23.9215C69.1518 25.8996 67.8329 27.0536 66.1843 27.8779L66.3492 28.0427C68.1625 31.3396 70.4707 35.296 74.2616 36.285L73.9321 36.4499C73.5572 36.4249 73.1971 36.4075 72.8509 36.3908C70.9168 36.2972 69.4208 36.2248 68.1625 34.9663C66.6789 33.3178 65.3601 31.1748 64.8656 30.1857C64.139 28.7326 63.5015 28.7027 62.5608 28.6585C62.2209 28.6426 61.8414 28.6247 61.4037 28.5372V32.3287C61.4037 34.9663 61.4037 35.4608 64.7007 35.9554V36.4499H56.4583V36.1203C59.2068 35.7969 59.2597 34.9978 59.4162 32.6346L59.4256 32.4935L59.5904 25.0754ZM73.7676 31.0099C73.7676 28.8669 74.9214 26.2293 77.3941 26.2293C79.8668 26.2293 81.0212 29.1966 81.0212 31.3396C81.0212 33.3178 79.8668 36.1203 77.5592 36.1203C75.0865 36.1203 73.7676 33.3178 73.7676 31.0099ZM71.6245 31.3396C71.6245 34.6366 74.2623 36.7797 77.3941 36.7797C80.5266 36.7797 83.1644 34.4717 83.1644 31.1748C83.1644 27.8779 80.5266 25.7348 77.3941 25.7348C74.2623 25.7348 71.6245 28.0426 71.6245 31.3396ZM83.9879 27.8778C83.6584 26.7239 83.4933 26.559 82.3395 26.3942V26.0645H87.1197V26.3942C85.3701 26.5532 85.7695 27.4797 86.2436 28.5812L86.2955 28.702L88.6037 34.8014L90.0871 30.5154L90.1903 30.1901C91.0971 27.3255 91.3414 26.5532 89.5924 26.3942V26.0645H93.7142V26.3942C92.7249 26.559 92.3953 27.0536 91.9007 27.8778L90.9113 30.1857L87.2848 39.4172C86.4606 41.7251 85.8015 42.3845 84.8122 42.3845C84.153 42.3845 83.6584 41.8899 83.6584 41.2306C83.6584 40.7359 83.9879 40.2414 84.4826 40.0766C84.647 40.2414 85.4713 40.7359 85.8015 40.7359C86.2955 40.7359 86.7902 39.4172 86.7902 39.0875L87.6144 37.2742L83.9879 27.8778ZM94.868 33.4827C94.868 33.153 94.868 32.8233 95.0331 32.4935L98.1649 30.8451V34.4717C97.8354 34.9663 97.1756 35.296 96.5165 35.296C95.5271 35.296 94.868 34.4717 94.868 33.4827ZM96.0218 26.7239C97.8354 26.7239 98.4945 27.713 98.33 30.3505L93.0544 32.8233C92.89 33.3178 92.89 33.6475 92.89 33.9772C92.89 35.4608 93.7142 36.7797 95.1976 36.7797C96.3514 36.7797 97.3407 35.9554 98.1649 35.1311C98.33 35.9554 98.6596 36.6147 99.6483 36.6147C100.086 36.6147 100.598 36.6147 101.132 36.5181C101.237 36.4993 101.342 36.4768 101.448 36.4499H106.572V36.1202C104.924 35.9554 104.759 35.7905 104.759 33.8124V20.2948H104.429L101.792 21.2839V21.6136C102.946 22.4378 102.946 22.7675 102.946 23.7566V33.8124C102.946 34.9982 102.841 35.5522 101.957 35.811V35.7906C99.9605 36.0976 99.9665 34.9746 99.9765 33.0875C99.9772 32.9486 99.9785 32.8054 99.9785 32.6584V29.3615C99.9785 27.3833 99.3187 25.7348 97.1756 25.7348C95.3627 25.7348 92.7249 28.2075 92.7249 28.8669C92.7249 29.0318 93.2196 29.0318 93.384 29.0318L94.5385 28.8669C94.5385 28.7538 94.5371 28.6444 94.5358 28.5387V28.5368C94.5231 27.412 94.5158 26.7239 96.0218 26.7239ZM125.365 33.4827C125.365 33.153 125.365 32.8233 125.53 32.4935L128.662 30.8451V34.4717C128.332 34.9663 127.673 35.296 127.014 35.296C126.024 35.296 125.365 34.4717 125.365 33.4827ZM126.354 26.7239C128.167 26.7239 128.826 27.713 128.662 30.3505L123.386 32.8233C123.222 33.3178 123.222 33.6475 123.222 33.9772C123.222 35.4608 124.046 36.7797 125.53 36.7797C126.684 36.7797 127.673 35.9554 128.497 35.1311C128.662 35.9554 128.992 36.6147 129.981 36.6147C130.504 36.6147 131.131 36.6147 131.78 36.4499H137.399V36.1203C135.256 35.9554 135.091 35.7906 135.091 33.8124L134.926 31.3396V31.3288L134.926 31.3072L134.925 31.2664C134.915 30.6802 134.862 27.7046 136.739 27.5481C137.234 27.5481 137.893 28.0427 138.223 28.3724C138.882 28.2075 139.542 27.713 139.542 26.8887C139.542 26.0645 139.047 25.7348 138.388 25.7348C136.904 25.7348 135.585 27.3832 135.091 28.7021L135.256 25.8996L134.926 25.7348L132.123 26.8887V27.0536C133.278 27.8779 133.278 28.2075 133.278 29.1966V33.4827C133.113 35.296 132.948 35.6257 131.464 35.7906V35.8837C130.294 35.8251 130.301 34.6845 130.309 33.0879L130.31 32.897C130.31 32.8185 130.311 32.7389 130.311 32.6584V29.3615C130.311 27.3833 129.651 25.7348 127.508 25.7348C125.695 25.7348 123.057 28.2075 123.057 28.8669C123.057 29.0318 123.552 29.0318 123.717 29.0318L124.87 28.8669C124.87 28.7538 124.869 28.6443 124.868 28.5387V28.5368C124.855 27.412 124.848 26.7239 126.354 26.7239ZM121.738 24.9105H121.408C120.914 22.2729 119.43 20.2947 116.628 20.2947C112.342 20.2947 110.034 23.9214 110.034 28.0426C110.034 32.8232 113.661 36.1202 116.958 36.1202C120.09 36.1202 121.244 33.8123 122.233 31.3395L122.562 31.5045C122.3 32.6873 121.932 33.7655 121.543 34.906C121.444 35.1958 121.344 35.4898 121.244 35.7905C119.76 36.6147 118.112 36.7796 116.463 36.7796C111.518 36.7796 107.231 33.9771 107.231 28.5372C107.231 24.2511 110.528 19.9651 116.793 19.9651C118.606 19.9651 120.42 20.2948 121.903 21.2838L121.738 24.9105ZM181.084 33.6474C181.084 33.3177 181.084 32.9881 181.248 32.6584L184.381 31.0099V34.6365C184.051 35.1311 183.391 35.4608 182.732 35.4608C181.743 35.4608 181.084 34.6365 181.084 33.6474ZM181.908 26.8886C183.721 26.8886 184.381 27.8777 184.216 30.5153L178.941 32.8232C178.776 33.3178 178.776 33.6475 178.776 33.9771C178.776 35.4608 179.6 36.7796 181.084 36.7796C182.238 36.7796 183.227 35.9553 184.051 35.1311C184.216 35.9553 184.545 36.6147 185.534 36.6147C185.697 36.6147 185.859 36.6247 186.024 36.6348C186.361 36.6556 186.709 36.677 187.088 36.6147H192.623V36.285C190.975 36.1201 190.81 35.9553 190.81 33.9771V28.2074C191.634 27.548 192.293 27.2183 193.283 27.2183C196.104 27.2183 196.094 29.4545 196.086 31.0915C196.085 31.1759 196.085 31.2587 196.085 31.3395V34.142C196.085 35.7904 196.085 36.1201 194.271 36.4498V36.7796H199.711V36.4498C198.063 36.285 197.898 36.1201 197.898 34.142V29.8559C197.898 28.3723 197.733 26.0644 194.931 26.0644C193.447 26.0644 192.128 26.8886 190.81 27.8777L190.975 26.0644L190.645 25.8996L187.843 27.0535V27.3832C188.996 28.2074 188.996 28.5371 188.996 29.5262H188.831V33.9771C188.831 35.512 188.714 35.9839 187.678 36.1926V36.1201C185.801 36.2645 185.821 35.2707 185.854 33.5819V33.5805V33.5798V33.5791V33.5782V33.5774C185.859 33.3393 185.864 33.0875 185.864 32.8232V29.5262C185.864 27.548 185.205 25.8996 183.062 25.8996C181.248 25.8996 178.611 28.3723 178.611 29.0317C178.611 29.1966 179.105 29.1965 179.27 29.1965L180.424 29.0317C180.424 28.9179 180.423 28.8078 180.422 28.7015C180.409 27.5768 180.401 26.8886 181.908 26.8886ZM143.003 22.7675C143.498 22.7675 144.157 22.273 144.157 21.6136C144.157 21.119 143.498 20.4596 143.003 20.4596C142.509 20.4596 141.85 20.9542 141.85 21.6136C141.85 22.1081 142.344 22.7675 143.003 22.7675ZM140.366 36.1202V36.4499H145.971V36.1202C144.322 35.9554 144.157 35.7905 144.157 33.8124V25.8996L143.828 25.7348L140.696 26.7239V27.0536C142.179 27.8778 142.179 28.2075 142.179 29.1966V33.8124C142.179 35.4608 142.179 35.7905 140.366 36.1202ZM159.653 31.8341C159.653 34.1421 159.818 36.1202 162.621 36.1202C163.939 36.1202 166.083 34.9663 166.083 31.8341C166.083 29.0317 164.269 27.0536 161.961 27.0536C161.137 27.0536 160.477 27.2184 159.653 27.5481V31.8341ZM157.84 23.7566C157.84 22.7675 157.84 22.4378 156.686 21.6136V21.2839L159.489 20.2948H159.653V27.0536C160.808 26.3942 162.291 25.7348 163.445 25.7348C166.083 25.7348 167.896 28.2075 167.896 30.6802C167.896 34.9663 164.105 36.7797 161.467 36.7797C159.983 36.7797 158.994 36.45 157.84 35.7905V23.7566ZM151.411 36.1202C148.609 36.1202 148.444 34.1421 148.444 31.8341V27.5481C149.268 27.2184 149.928 27.0536 150.752 27.0536C153.059 27.0536 154.873 29.0317 154.873 31.8341C154.873 34.9663 152.73 36.1202 151.411 36.1202ZM145.476 21.6136C146.631 22.4378 146.631 22.7675 146.631 23.7566V35.7905C147.784 36.45 148.773 36.7797 150.257 36.7797C152.895 36.7797 156.686 34.9663 156.686 30.6802C156.686 28.2075 154.873 25.7348 152.235 25.7348C151.081 25.7348 149.597 26.3942 148.444 27.0536V20.2948H148.279L145.476 21.2839V21.6136ZM175.644 28.5372C175.479 27.3832 174.82 26.2293 173.501 26.2293C172.182 26.2293 171.357 27.5482 171.028 28.8669L175.644 28.5372ZM171.028 30.3505C170.863 32.8233 172.511 35.1311 175.149 35.1311C176.468 35.1311 177.127 34.4717 177.951 33.6475L178.281 33.9772C177.457 35.6257 175.808 36.7797 173.995 36.7797C171.028 36.7797 169.05 34.3069 169.05 31.5045C169.05 28.3724 171.193 25.7348 174.325 25.7348C176.468 25.7348 177.787 27.0536 177.951 29.3615H171.193L171.028 30.3505Z" fill="white"/>
</g>
</g>
</g>
<defs>
<clipPath id="clip0_17_2772">
<rect width="206.39" height="72" fill="white" transform="translate(0.409973 0.370117)"/>
</clipPath>
<clipPath id="clip1_17_2772">
<rect width="206.39" height="72" fill="white" transform="translate(0.409973 0.370117)"/>
</clipPath>
<clipPath id="clip2_17_2772">
<rect width="206.39" height="66.5774" fill="white" transform="translate(0.409973 3.08154)"/>
</clipPath>
</defs>
</svg>
