<svg width="1512" height="25" viewBox="0 0 1512 25" fill="none" xmlns="http://www.w3.org/2000/svg">
<mask id="path-1-inside-1_17_1321" fill="white">
<path d="M0 0H1586V25H0V0Z"/>
</mask>
<path d="M0 0H1586V25H0V0Z" fill="#0C214D"/>
<path d="M1586 24H0V26H1586V24Z" fill="white" fill-opacity="0.16" mask="url(#path-1-inside-1_17_1321)"/>
<path d="M1139.22 11.5174V6.62143H1140.21V11.4934C1140.21 12.9574 1141 13.8814 1142.48 13.8814C1143.96 13.8814 1144.75 12.9574 1144.75 11.4934V6.62143H1145.74V11.5054C1145.74 13.4974 1144.65 14.7694 1142.48 14.7694C1140.31 14.7694 1139.22 13.4854 1139.22 11.5174ZM1155.28 14.6254L1150.61 8.16943V14.6254H1149.62V6.62143H1150.64L1155.25 12.9454V6.62143H1156.24V14.6254H1155.28ZM1160.11 14.6254V6.62143H1161.11V14.6254H1160.11ZM1166.97 14.6254V7.50943H1164.43V6.62143H1170.51V7.50943H1167.96V14.6254H1166.97ZM1173.83 14.6254V6.62143H1179.07V7.50943H1174.83V10.0894H1178.99V10.9774H1174.83V13.7374H1179.07V14.6254H1173.83ZM1182.66 14.6254V6.62143H1185.4C1187.88 6.62143 1189.5 8.36143 1189.5 10.6294C1189.5 12.9094 1187.88 14.6254 1185.4 14.6254H1182.66ZM1183.66 13.7374H1185.4C1187.34 13.7374 1188.47 12.3454 1188.47 10.6294C1188.47 8.90143 1187.38 7.50943 1185.4 7.50943H1183.66V13.7374ZM1197.68 13.4974L1198.27 12.7414C1198.79 13.3294 1199.66 13.8814 1200.79 13.8814C1202.21 13.8814 1202.67 13.1134 1202.67 12.5014C1202.67 11.5414 1201.7 11.2774 1200.64 10.9894C1199.36 10.6534 1197.93 10.2934 1197.93 8.72143C1197.93 7.40143 1199.11 6.50143 1200.68 6.50143C1201.9 6.50143 1202.85 6.90943 1203.52 7.61743L1202.92 8.34943C1202.32 7.68943 1201.48 7.38943 1200.61 7.38943C1199.65 7.38943 1198.96 7.90543 1198.96 8.66143C1198.96 9.46543 1199.89 9.70543 1200.91 9.98143C1202.21 10.3294 1203.7 10.7374 1203.7 12.4174C1203.7 13.5814 1202.91 14.7694 1200.75 14.7694C1199.36 14.7694 1198.34 14.2414 1197.68 13.4974ZM1209.1 14.6254V7.50943H1206.57V6.62143H1212.64V7.50943H1210.09V14.6254H1209.1ZM1220.9 14.6254L1220.19 12.8494H1216.14L1215.43 14.6254H1214.33L1217.54 6.62143H1218.78L1222.01 14.6254H1220.9ZM1218.17 7.50943L1216.43 11.9614H1219.89L1218.17 7.50943ZM1226.22 14.6254V7.50943H1223.69V6.62143H1229.76V7.50943H1227.22V14.6254H1226.22ZM1233.09 14.6254V6.62143H1238.33V7.50943H1234.08V10.0894H1238.25V10.9774H1234.08V13.7374H1238.33V14.6254H1233.09ZM1241.44 13.4974L1242.03 12.7414C1242.56 13.3294 1243.42 13.8814 1244.55 13.8814C1245.98 13.8814 1246.43 13.1134 1246.43 12.5014C1246.43 11.5414 1245.46 11.2774 1244.4 10.9894C1243.12 10.6534 1241.69 10.2934 1241.69 8.72143C1241.69 7.40143 1242.87 6.50143 1244.44 6.50143C1245.66 6.50143 1246.61 6.90943 1247.28 7.61743L1246.68 8.34943C1246.08 7.68943 1245.24 7.38943 1244.37 7.38943C1243.41 7.38943 1242.72 7.90543 1242.72 8.66143C1242.72 9.46543 1243.65 9.70543 1244.67 9.98143C1245.98 10.3294 1247.46 10.7374 1247.46 12.4174C1247.46 13.5814 1246.67 14.7694 1244.51 14.7694C1243.12 14.7694 1242.1 14.2414 1241.44 13.4974Z" fill="white"/>
<g clip-path="url(#clip0_17_1321)">
<g clip-path="url(#clip1_17_1321)">
<g clip-path="url(#clip2_17_1321)">
<path d="M1258 6.23541H1275.1V6.92729H1258V6.23541ZM1258 7.62104H1275.1V8.31291H1258V7.62104ZM1258 9.00479H1275.1V9.69854H1258V9.00479ZM1258 10.3885H1275.1V11.0804H1258V10.3885ZM1258 11.7742H1275.1V12.466H1258V11.7742ZM1258 13.1579H1275.1V13.8498H1258V13.1579ZM1258 14.5435H1275.1V15.2354H1258V14.5435Z" fill="#BD3D44"/>
<path d="M1258 6.92729H1275.1V7.61917H1258V6.92729ZM1258 8.31292H1275.1V9.00292H1258V8.31292ZM1258 9.69667H1275.1V10.3885H1258V9.69667ZM1258 11.0823H1275.1V11.7742H1258V11.0823ZM1258 12.466H1275.1V13.1579H1258V12.466ZM1258 13.8498H1275.1V14.5417H1258V13.8498Z" fill="white"/>
<path d="M1258 6.23541H1264.84V11.0823H1258V6.23541Z" fill="#192F5D"/>
<path d="M1258.57 6.44354L1258.63 6.63479H1258.83L1258.67 6.75292L1258.74 6.94604L1258.57 6.82604L1258.41 6.94417L1258.47 6.75292L1258.31 6.63479H1258.51L1258.57 6.44354ZM1259.71 6.44354L1259.77 6.63479H1259.97L1259.81 6.75292L1259.87 6.94604L1259.71 6.82604L1259.55 6.94417L1259.61 6.75292L1259.45 6.63479H1259.65L1259.71 6.44354ZM1260.85 6.44354L1260.91 6.63479H1261.11L1260.95 6.75292L1261.01 6.94604L1260.85 6.82604L1260.69 6.94417L1260.75 6.75292L1260.59 6.63479H1260.79L1260.85 6.44354ZM1261.99 6.44354L1262.05 6.63479H1262.25L1262.09 6.75292L1262.16 6.94604L1261.99 6.82604L1261.83 6.94417L1261.89 6.75292L1261.73 6.63479H1261.93L1261.99 6.44354ZM1263.13 6.44354L1263.19 6.63479H1263.39L1263.23 6.75292L1263.3 6.94604L1263.13 6.82604L1262.97 6.94417L1263.03 6.75292L1262.87 6.63479H1263.07L1263.13 6.44354ZM1264.27 6.44354L1264.33 6.63479H1264.53L1264.37 6.75292L1264.44 6.94604L1264.27 6.82604L1264.11 6.94417L1264.17 6.75292L1264.01 6.63479H1264.21L1264.27 6.44354ZM1259.14 6.92729L1259.2 7.11854H1259.4L1259.24 7.23667L1259.3 7.42792L1259.14 7.30979L1258.98 7.42792L1259.04 7.23667L1258.88 7.11854H1259.08L1259.14 6.92729ZM1260.28 6.92729L1260.34 7.11854H1260.54L1260.38 7.23667L1260.45 7.42792L1260.28 7.30979L1260.12 7.42792L1260.18 7.23667L1260.02 7.11854H1260.22L1260.28 6.92729ZM1261.42 6.92729L1261.48 7.11854H1261.68L1261.52 7.23667L1261.58 7.42792L1261.42 7.30979L1261.26 7.42792L1261.32 7.23667L1261.16 7.11854H1261.36L1261.42 6.92729ZM1262.56 6.92729L1262.62 7.11854H1262.82L1262.66 7.23667L1262.73 7.42792L1262.56 7.30979L1262.4 7.42792L1262.46 7.23667L1262.3 7.11854H1262.5L1262.56 6.92729ZM1263.7 6.92729L1263.76 7.11854H1263.96L1263.8 7.23667L1263.86 7.42792L1263.7 7.30979L1263.54 7.42792L1263.6 7.23667L1263.44 7.11854H1263.64L1263.7 6.92729ZM1258.57 7.41104L1258.63 7.60604H1258.83L1258.67 7.72417L1258.74 7.91542L1258.57 7.79542L1258.41 7.91542L1258.47 7.72229L1258.31 7.60417H1258.51L1258.57 7.41104ZM1259.71 7.41104L1259.77 7.60417H1259.97L1259.81 7.72229L1259.87 7.91354L1259.71 7.79354L1259.55 7.91354L1259.61 7.72042L1259.45 7.60229H1259.65L1259.71 7.41104ZM1260.85 7.41104L1260.91 7.60417H1261.11L1260.95 7.72229L1261.01 7.91354L1260.85 7.79354L1260.69 7.91354L1260.75 7.72042L1260.59 7.60229H1260.79L1260.85 7.41104ZM1261.99 7.41104L1262.05 7.60417H1262.25L1262.09 7.72229L1262.16 7.91354L1261.99 7.79354L1261.83 7.91354L1261.89 7.72042L1261.73 7.60229H1261.93L1261.99 7.41104ZM1263.13 7.41104L1263.19 7.60417H1263.39L1263.23 7.72229L1263.3 7.91354L1263.13 7.79354L1262.97 7.91354L1263.03 7.72042L1262.87 7.60229H1263.07L1263.13 7.41104ZM1264.27 7.41104L1264.33 7.60417H1264.53L1264.37 7.72229L1264.44 7.91354L1264.27 7.79354L1264.11 7.91354L1264.17 7.72042L1264.01 7.60229H1264.21L1264.27 7.41104ZM1259.14 7.89667L1259.2 8.08792H1259.4L1259.24 8.20604L1259.3 8.39917L1259.14 8.27917L1258.98 8.39729L1259.04 8.20604L1258.88 8.08792H1259.08L1259.14 7.89667ZM1260.28 7.89667L1260.34 8.08792H1260.54L1260.38 8.20604L1260.45 8.39917L1260.28 8.27917L1260.12 8.39729L1260.18 8.20604L1260.02 8.08792H1260.22L1260.28 7.89667ZM1261.42 7.89667L1261.48 8.08792H1261.68L1261.52 8.20604L1261.58 8.39917L1261.42 8.27917L1261.26 8.39729L1261.32 8.20604L1261.16 8.08792H1261.36L1261.42 7.89667ZM1262.56 7.89667L1262.62 8.08792H1262.82L1262.66 8.20604L1262.73 8.39917L1262.56 8.27917L1262.4 8.39729L1262.46 8.20604L1262.3 8.08792H1262.5L1262.56 7.89667ZM1263.7 7.89667L1263.76 8.08792H1263.96L1263.8 8.20604L1263.86 8.39917L1263.7 8.27917L1263.54 8.39729L1263.6 8.20604L1263.44 8.08792H1263.64L1263.7 7.89667ZM1258.57 8.38229L1258.63 8.57354H1258.83L1258.67 8.69167L1258.74 8.88479L1258.57 8.76479L1258.41 8.88292L1258.47 8.69167L1258.31 8.57354H1258.51L1258.57 8.38229ZM1259.71 8.38229L1259.77 8.57354H1259.97L1259.81 8.69167L1259.87 8.88292L1259.71 8.76479L1259.55 8.88292L1259.61 8.69167L1259.45 8.57354H1259.65L1259.71 8.38229ZM1260.85 8.38229L1260.91 8.57354H1261.11L1260.95 8.69167L1261.01 8.88479L1260.85 8.76479L1260.69 8.88292L1260.75 8.69167L1260.59 8.57354H1260.79L1260.85 8.38229ZM1261.99 8.38229L1262.05 8.57354H1262.25L1262.09 8.69167L1262.16 8.88479L1261.99 8.76479L1261.83 8.88292L1261.89 8.69167L1261.73 8.57354H1261.93L1261.99 8.38229ZM1263.13 8.38229L1263.19 8.57354H1263.39L1263.23 8.69167L1263.29 8.88479L1263.13 8.76479L1262.97 8.88292L1263.03 8.69167L1262.87 8.57354H1263.07L1263.13 8.38229ZM1264.27 8.38229L1264.33 8.57354H1264.53L1264.37 8.69167L1264.44 8.88479L1264.27 8.76479L1264.11 8.88292L1264.17 8.69167L1264.01 8.57354H1264.21L1264.27 8.38229ZM1259.14 8.86604L1259.2 9.05729H1259.4L1259.24 9.17542L1259.3 9.36667L1259.14 9.24667L1258.98 9.36667L1259.04 9.17354L1258.88 9.05542H1259.08L1259.14 8.86604ZM1260.28 8.86604L1260.34 9.05729H1260.54L1260.38 9.17542L1260.45 9.36667L1260.28 9.24667L1260.12 9.36667L1260.18 9.17354L1260.02 9.05542H1260.22L1260.28 8.86604ZM1261.42 8.86604L1261.48 9.05729H1261.68L1261.52 9.17542L1261.58 9.36667L1261.42 9.24667L1261.26 9.36667L1261.32 9.17354L1261.16 9.05542H1261.36L1261.42 8.86604ZM1262.56 8.86604L1262.62 9.05729H1262.82L1262.66 9.17542L1262.73 9.36667L1262.56 9.24667L1262.4 9.36667L1262.46 9.17354L1262.3 9.05542H1262.5L1262.56 8.86604ZM1263.7 8.86604L1263.76 9.05729H1263.96L1263.8 9.17542L1263.86 9.36667L1263.7 9.24667L1263.54 9.36667L1263.6 9.17354L1263.44 9.05542H1263.64L1263.7 8.86604ZM1258.57 9.34979L1258.63 9.54292H1258.83L1258.67 9.66104L1258.74 9.85042L1258.57 9.73229L1258.41 9.85042L1258.47 9.65917L1258.31 9.54104H1258.51L1258.57 9.34979ZM1259.71 9.34979L1259.77 9.54292H1259.97L1259.81 9.66104L1259.88 9.85042L1259.71 9.73229L1259.55 9.85042L1259.61 9.65917L1259.45 9.54104H1259.65L1259.71 9.34979ZM1260.85 9.34979L1260.91 9.54292H1261.11L1260.95 9.66104L1261.01 9.85042L1260.85 9.73229L1260.69 9.85042L1260.75 9.65917L1260.59 9.54104H1260.79L1260.85 9.34979ZM1261.99 9.34979L1262.05 9.54292H1262.25L1262.09 9.66104L1262.16 9.85042L1261.99 9.73229L1261.83 9.85042L1261.89 9.65917L1261.73 9.54104H1261.93L1261.99 9.34979ZM1263.13 9.34979L1263.19 9.54292H1263.39L1263.23 9.66104L1263.3 9.85042L1263.13 9.73229L1262.97 9.85042L1263.03 9.65917L1262.87 9.54104H1263.07L1263.13 9.34979ZM1264.27 9.34979L1264.33 9.54292H1264.53L1264.37 9.66104L1264.44 9.85042L1264.27 9.73229L1264.11 9.85042L1264.17 9.65917L1264.01 9.54104H1264.21L1264.27 9.34979ZM1259.14 9.83542L1259.2 10.0267H1259.4L1259.24 10.1448L1259.3 10.3379L1259.14 10.2179L1258.98 10.336L1259.04 10.1448L1258.88 10.0267H1259.08L1259.14 9.83542ZM1260.28 9.83542L1260.34 10.0267H1260.54L1260.38 10.1448L1260.45 10.3379L1260.28 10.2179L1260.12 10.336L1260.18 10.1448L1260.02 10.0267H1260.22L1260.28 9.83542ZM1261.42 9.83542L1261.48 10.0267H1261.68L1261.52 10.1448L1261.58 10.3379L1261.42 10.2179L1261.26 10.336L1261.32 10.1448L1261.16 10.0267H1261.36L1261.42 9.83542ZM1262.56 9.83542L1262.62 10.0267H1262.82L1262.66 10.1448L1262.73 10.3379L1262.56 10.2179L1262.4 10.336L1262.46 10.1448L1262.3 10.0267H1262.5L1262.56 9.83542ZM1263.7 9.83542L1263.76 10.0267H1263.96L1263.8 10.1448L1263.86 10.3379L1263.7 10.2179L1263.54 10.336L1263.6 10.1448L1263.44 10.0267H1263.64L1263.7 9.83542ZM1258.57 10.321L1258.63 10.5123H1258.83L1258.67 10.6304L1258.74 10.8217L1258.57 10.7035L1258.41 10.8217L1258.47 10.6285L1258.31 10.5104H1258.51L1258.57 10.321ZM1259.71 10.321L1259.77 10.5123H1259.97L1259.81 10.6304L1259.88 10.8217L1259.71 10.7035L1259.55 10.8217L1259.61 10.6285L1259.45 10.5104H1259.65L1259.71 10.321ZM1260.85 10.321L1260.91 10.5123H1261.11L1260.96 10.6304L1261.02 10.8217L1260.85 10.7035L1260.69 10.8217L1260.75 10.6285L1260.59 10.5104H1260.79L1260.85 10.321ZM1261.99 10.321L1262.05 10.5123H1262.25L1262.09 10.6304L1262.16 10.8217L1261.99 10.7035L1261.83 10.8217L1261.89 10.6285L1261.73 10.5104H1261.93L1261.99 10.321ZM1263.13 10.321L1263.19 10.5123H1263.39L1263.23 10.6304L1263.3 10.8217L1263.13 10.7035L1262.97 10.8217L1263.03 10.6285L1262.87 10.5104H1263.07L1263.13 10.321ZM1264.27 10.321L1264.33 10.5123H1264.53L1264.37 10.6304L1264.44 10.8217L1264.27 10.7035L1264.11 10.8217L1264.17 10.6285L1264.01 10.5104H1264.21L1264.27 10.321Z" fill="white"/>
</g>
</g>
</g>
<path d="M1294.62 12.5974C1294.62 11.5294 1295.54 10.7974 1296.53 10.4974C1295.61 10.2334 1294.76 9.63343 1294.76 8.57743C1294.76 7.13743 1296.16 6.50143 1297.49 6.50143C1298.81 6.50143 1300.24 7.13743 1300.24 8.57743C1300.24 9.63343 1299.38 10.2334 1298.45 10.4974C1299.45 10.7974 1300.36 11.5294 1300.36 12.5974C1300.36 13.9534 1299.06 14.7694 1297.49 14.7694C1295.91 14.7694 1294.62 13.9654 1294.62 12.5974ZM1299.23 8.70943C1299.23 7.88143 1298.45 7.38943 1297.49 7.38943C1296.52 7.38943 1295.75 7.88143 1295.75 8.70943C1295.75 9.68143 1297.01 10.0054 1297.49 10.0894C1297.98 10.0054 1299.23 9.68143 1299.23 8.70943ZM1299.35 12.4894C1299.35 11.4454 1297.98 11.0014 1297.49 10.9414C1297 11.0014 1295.62 11.4454 1295.62 12.4894C1295.62 13.3534 1296.5 13.8814 1297.49 13.8814C1298.48 13.8814 1299.35 13.3534 1299.35 12.4894ZM1303.58 10.6414C1303.58 8.46943 1304.59 6.50143 1306.84 6.50143C1307.87 6.50143 1308.56 6.89743 1309.06 7.46143L1308.55 8.20543C1308.14 7.72543 1307.68 7.38943 1306.84 7.38943C1305.29 7.38943 1304.58 8.96143 1304.58 10.5334C1304.58 10.6414 1304.58 10.7374 1304.59 10.8454C1304.94 10.2934 1305.83 9.59743 1306.86 9.59743C1308.3 9.59743 1309.48 10.4494 1309.48 12.1534C1309.48 13.5454 1308.42 14.7694 1306.67 14.7694C1304.44 14.7694 1303.58 12.8134 1303.58 10.6414ZM1308.47 12.1894C1308.47 11.0134 1307.65 10.4614 1306.62 10.4614C1305.83 10.4614 1305.06 10.9534 1304.62 11.6614C1304.71 12.6574 1305.24 13.8814 1306.63 13.8814C1307.87 13.8814 1308.47 12.9574 1308.47 12.1894ZM1312.67 10.6414C1312.67 8.46943 1313.68 6.50143 1315.93 6.50143C1316.96 6.50143 1317.65 6.89743 1318.15 7.46143L1317.64 8.20543C1317.23 7.72543 1316.77 7.38943 1315.93 7.38943C1314.38 7.38943 1313.67 8.96143 1313.67 10.5334C1313.67 10.6414 1313.67 10.7374 1313.68 10.8454C1314.03 10.2934 1314.92 9.59743 1315.95 9.59743C1317.39 9.59743 1318.57 10.4494 1318.57 12.1534C1318.57 13.5454 1317.51 14.7694 1315.76 14.7694C1313.53 14.7694 1312.67 12.8134 1312.67 10.6414ZM1317.56 12.1894C1317.56 11.0134 1316.74 10.4614 1315.71 10.4614C1314.92 10.4614 1314.15 10.9534 1313.71 11.6614C1313.8 12.6574 1314.33 13.8814 1315.72 13.8814C1316.96 13.8814 1317.56 12.9574 1317.56 12.1894ZM1321.51 12.1174V11.3254H1324.39V12.1174H1321.51ZM1327.54 13.4854L1328.15 12.8254C1328.68 13.4974 1329.38 13.8814 1330.36 13.8814C1331.45 13.8814 1332.21 13.1374 1332.21 12.1654C1332.21 11.1094 1331.45 10.4374 1330.37 10.4374C1329.67 10.4374 1329.07 10.6654 1328.53 11.1934L1327.79 10.9414V6.62143H1332.69V7.50943H1328.79V10.2934C1329.17 9.90943 1329.86 9.57343 1330.66 9.57343C1331.99 9.57343 1333.21 10.4854 1333.21 12.1294C1333.21 13.7614 1331.97 14.7694 1330.36 14.7694C1329.01 14.7694 1328.14 14.2774 1327.54 13.4854ZM1336.44 10.6414C1336.44 8.46943 1337.45 6.50143 1339.69 6.50143C1340.72 6.50143 1341.42 6.89743 1341.91 7.46143L1341.41 8.20543C1341 7.72543 1340.53 7.38943 1339.69 7.38943C1338.14 7.38943 1337.44 8.96143 1337.44 10.5334C1337.44 10.6414 1337.44 10.7374 1337.45 10.8454C1337.8 10.2934 1338.68 9.59743 1339.72 9.59743C1341.16 9.59743 1342.33 10.4494 1342.33 12.1534C1342.33 13.5454 1341.28 14.7694 1339.52 14.7694C1337.29 14.7694 1336.44 12.8134 1336.44 10.6414ZM1341.32 12.1894C1341.32 11.0134 1340.51 10.4614 1339.48 10.4614C1338.68 10.4614 1337.92 10.9534 1337.47 11.6614C1337.57 12.6574 1338.1 13.8814 1339.49 13.8814C1340.72 13.8814 1341.32 12.9574 1341.32 12.1894ZM1345.57 14.6254V13.8334C1348.45 11.5654 1350.01 10.2334 1350.01 8.85343C1350.01 7.83343 1349.17 7.38943 1348.34 7.38943C1347.38 7.38943 1346.63 7.79743 1346.17 8.39743L1345.55 7.76143C1346.17 6.95743 1347.21 6.50143 1348.34 6.50143C1349.67 6.50143 1351.03 7.25743 1351.03 8.85343C1351.03 10.4854 1349.37 11.9734 1347.14 13.7374H1351.06V14.6254H1345.57ZM1354.33 12.1174V11.3254H1357.21V12.1174H1354.33ZM1361.02 14.6254L1364.25 7.50943H1359.94V6.62143H1365.4V7.30543L1362.13 14.6254H1361.02ZM1368.36 10.6414C1368.36 8.46943 1369.37 6.50143 1371.61 6.50143C1372.64 6.50143 1373.34 6.89743 1373.83 7.46143L1373.33 8.20543C1372.92 7.72543 1372.45 7.38943 1371.61 7.38943C1370.06 7.38943 1369.35 8.96143 1369.35 10.5334C1369.35 10.6414 1369.35 10.7374 1369.37 10.8454C1369.71 10.2934 1370.6 9.59743 1371.63 9.59743C1373.07 9.59743 1374.25 10.4494 1374.25 12.1534C1374.25 13.5454 1373.19 14.7694 1371.44 14.7694C1369.21 14.7694 1368.36 12.8134 1368.36 10.6414ZM1373.24 12.1894C1373.24 11.0134 1372.43 10.4614 1371.39 10.4614C1370.6 10.4614 1369.83 10.9534 1369.39 11.6614C1369.49 12.6574 1370.01 13.8814 1371.41 13.8814C1372.64 13.8814 1373.24 12.9574 1373.24 12.1894ZM1377.48 14.6254V13.8334C1380.36 11.5654 1381.92 10.2334 1381.92 8.85343C1381.92 7.83343 1381.08 7.38943 1380.26 7.38943C1379.3 7.38943 1378.55 7.79743 1378.08 8.39743L1377.47 7.76143C1378.08 6.95743 1379.13 6.50143 1380.26 6.50143C1381.59 6.50143 1382.94 7.25743 1382.94 8.85343C1382.94 10.4854 1381.29 11.9734 1379.06 13.7374H1382.98V14.6254H1377.48ZM1386.68 13.4854L1387.29 12.8254C1387.82 13.4974 1388.52 13.8814 1389.5 13.8814C1390.59 13.8814 1391.35 13.1374 1391.35 12.1654C1391.35 11.1094 1390.59 10.4374 1389.51 10.4374C1388.81 10.4374 1388.21 10.6654 1387.67 11.1934L1386.93 10.9414V6.62143H1391.83V7.50943H1387.93V10.2934C1388.31 9.90943 1389 9.57343 1389.8 9.57343C1391.13 9.57343 1392.35 10.4854 1392.35 12.1294C1392.35 13.7614 1391.11 14.7694 1389.5 14.7694C1388.15 14.7694 1387.28 14.2774 1386.68 13.4854Z" fill="white"/>
<defs>
<clipPath id="clip0_17_1321">
<rect width="85" height="9" fill="white" transform="translate(1258 6.23541)"/>
</clipPath>
<clipPath id="clip1_17_1321">
<rect width="12" height="9" fill="white" transform="translate(1258 6.23541)"/>
</clipPath>
<clipPath id="clip2_17_1321">
<rect width="12" height="9" fill="white" transform="translate(1258 6.23541)"/>
</clipPath>
</defs>
</svg>
