<svg width="207" height="73" viewBox="0 0 207 73" fill="none" xmlns="http://www.w3.org/2000/svg">
<g clip-path="url(#clip0_17_2780)">
<g clip-path="url(#clip1_17_2780)">
<g clip-path="url(#clip2_17_2780)">
<path fill-rule="evenodd" clip-rule="evenodd" d="M17.0825 42.3226C15.5676 40.0454 13.6991 39.2116 11.8884 38.4081L11.8698 38.3997C10.9135 37.9735 10.0089 37.5704 9.16815 36.9702C8.538 36.5189 7.96556 35.7773 7.36151 34.9902C6.55935 33.9445 5.64709 32.7585 4.38398 31.9701L4.1831 31.8435L9.89051 27.5712C11.1908 28.112 12.1993 29.4287 13.0896 30.5913L13.1016 30.6071C13.6847 31.369 14.2341 32.087 14.7875 32.4805C14.8301 32.5108 15.514 32.9511 15.514 32.9511L13.6096 34.4096C13.3867 34.2789 13.1694 34.1399 12.9574 33.9872C12.5157 33.6716 12.0759 33.1047 11.6206 32.518C11.0973 31.8435 10.5536 31.1428 9.96347 30.7675L8.11412 32.1668C8.84866 32.6527 9.39536 33.3755 9.89771 34.0398C10.3044 34.5776 10.6821 35.0769 11.1068 35.381C11.9401 35.9767 12.8587 36.3844 13.8003 36.8023C15.6186 37.6093 17.5228 38.4544 19.0638 40.7651C19.672 40.289 20.2995 39.8005 20.8897 39.3479C19.3481 37.0523 17.4495 36.2083 15.6359 35.4022L15.5263 35.3535L19.0185 32.6181C18.12 32.2205 17.2669 31.8352 16.473 31.267C15.8098 30.7923 15.258 30.0149 14.676 29.1907L14.6712 29.1839C13.5029 27.54 12.1817 25.6811 9.37592 24.9707C9.25346 25.2473 8.8792 25.8664 7.83903 26.5695L0.38417 32.3925C2.84827 33.1574 4.10037 34.9184 5.21068 36.48L5.22259 36.4967C5.80307 37.3094 6.35314 38.0795 6.99415 38.5374C7.81371 39.1245 8.70875 39.522 9.65604 39.9427L9.65796 39.9436C11.5072 40.7637 13.4129 41.614 14.9774 43.9544C15.1865 43.7893 15.408 43.6228 15.6447 43.4494C15.7457 43.3755 16.1658 43.0446 16.7619 42.575L17.0825 42.3226ZM13.0797 45.567C11.5661 43.2753 9.69522 42.4412 7.88211 41.6328L7.86765 41.6263C6.90452 41.2012 5.99366 40.7967 5.14747 40.1899C4.20771 39.5171 3.26653 38.17 2.42584 36.9455L0.189941 38.6791C0.807738 39.2075 1.28102 39.8115 1.70343 40.3577L1.71486 40.3723C2.12341 40.8939 2.50971 41.3871 2.94458 41.7007C3.68916 42.2311 4.54965 42.6246 5.46295 43.0422L5.52303 43.0697L5.52875 43.0723C7.53209 43.9825 9.79266 45.0097 11.3529 47.7562C11.3732 47.7154 11.399 47.6731 11.4249 47.6304L11.437 47.6104L11.4519 47.5855C11.6047 47.2594 12.0133 46.5907 13.0797 45.567ZM32.0911 45.4378C30.1689 45.4378 28.1752 45.1502 26.4388 44.6246L25.6985 41.1366H26.5736C27.2024 42.928 29.2443 44.4567 32.3126 44.4567C35.1567 44.4567 37.3733 43.3821 37.3733 41.4943C37.3733 39.4058 34.9554 38.5896 32.3937 37.7248C29.5076 36.7505 26.4388 35.7146 26.4388 32.7283C26.4388 29.6448 29.8373 28.0446 34.3449 28.0446C35.4922 28.0446 36.6403 28.1687 37.7724 28.2911C38.1338 28.3302 38.4935 28.3691 38.8511 28.4037L39.4427 31.4624H38.5787C38.1728 29.7892 36.4872 29.0256 33.8276 29.0256C31.0193 29.0256 29.3942 30.1222 29.3942 31.8683C29.3942 33.9718 31.9445 34.8061 34.6303 35.6847C37.6173 36.6619 40.7719 37.6939 40.7719 40.5876C40.7719 43.6917 36.4501 45.4378 32.0911 45.4378ZM47.0377 45.4363C48.182 45.4219 48.606 45.4253 49.1848 45.43C49.5401 45.433 49.9535 45.4363 50.6275 45.4363V28.6238C48.781 28.6472 45.4073 28.6472 43.6709 28.6238V29.6585C45.6274 29.6819 47.0323 29.7053 47.0323 31.3908L47.0377 45.4363ZM83.1809 45.4363H81.8352L73.2784 31.5298C72.2974 30.2061 71.5805 29.6461 69.1794 29.6461V28.6238C70.3697 28.6401 72.1115 28.6337 73.5754 28.6283C74.2126 28.626 74.7975 28.6238 75.2613 28.6238L83.5799 42.2524L90.2834 30.9574C90.9361 29.5554 89.4536 29.5998 88.1739 29.638C87.8841 29.6467 87.6045 29.655 87.3621 29.6461V28.6238C88.7811 28.6472 92.4013 28.6472 93.5292 28.6238L83.1809 45.4363ZM61.669 28.6238C58.173 28.672 57.0998 28.672 54.6864 28.6238V29.6585C57.5318 29.73 58.1096 29.8264 58.1096 31.8022L58.1125 45.4363C59.9901 45.4034 65.0618 45.4168 69.1578 45.4277C70.8815 45.4322 72.4324 45.4363 73.4998 45.4363L74.9775 41.5466H74.1076C72.76 44.0158 71.2523 44.0648 68.0221 44.17L68.0185 44.17L67.7731 44.1781L67.5883 44.1842H61.669V28.6238ZM176.74 38.986C176.268 37.7394 174.698 37.0294 172.103 37.0294C171.896 37.017 168.315 37.0294 168.315 37.0294L168.3 44.1815H174.261C174.413 44.1763 174.562 44.1714 174.706 44.1667C177.927 44.0609 179.401 44.0126 180.747 41.5466L181.651 41.5438L180.17 45.4363C179.104 45.4363 177.552 45.4322 175.825 45.4277C171.72 45.4168 166.633 45.4034 164.756 45.4363L164.783 31.8022C164.783 29.8278 164.207 29.7314 161.36 29.6585V28.6252C163.774 28.6733 179.049 28.6238 179.049 28.6238L179.626 31.75H178.784C178.31 30.5047 176.743 29.7947 174.149 29.7947L168.315 29.803V35.9025L177.007 35.9011L177.582 38.986H176.74ZM107.173 37.0294C109.767 37.0294 111.336 37.7394 111.81 38.986H112.65L112.074 35.9011L103.382 35.9025V29.803L109.217 29.7947C111.811 29.7947 113.378 30.5047 113.854 31.75H114.696L114.12 28.6238C114.12 28.6238 98.8426 28.6733 96.4283 28.6252V29.6585C99.2745 29.7314 99.8511 29.8278 99.8511 31.8022L99.8241 45.4363C101.701 45.4034 106.789 45.4168 110.894 45.4277C112.621 45.4322 114.174 45.4363 115.241 45.4363L116.719 41.5438L115.815 41.5466C114.469 44.0126 112.995 44.0609 109.776 44.1667L109.775 44.1667L109.565 44.1736L109.33 44.1815H103.368L103.382 37.0294C103.382 37.0294 106.964 37.017 107.173 37.0294ZM200.589 45.4363L197.045 39.107L188.46 39.1098L186.373 43.2211C185.822 44.36 187.452 44.3714 188.759 44.3805C188.982 44.3821 189.196 44.3836 189.388 44.3906V45.4363C187.963 45.4129 184.523 45.4129 183.39 45.4363L190.531 32.0485C192.05 29.3255 187.811 29.6393 187.811 29.6393V28.6444L194.755 28.6238L204.262 45.4336C204.262 45.4336 202.122 45.4363 200.589 45.4363ZM192.496 30.9794L189.056 37.9816L196.402 37.9801L192.496 30.9794ZM134.015 32.7406C134.015 34.4481 132.274 36.0993 127.815 36.0993C127.198 36.0993 126.436 36.0525 125.892 35.9823V29.5608L125.959 29.5536C126.585 29.4845 127.192 29.4177 128.068 29.4177C132.346 29.4177 134.015 30.6767 134.015 32.7406ZM158.459 40.4954C158.375 37.6311 155.297 36.6043 152.394 35.6358C149.77 34.7605 147.288 33.9328 147.288 31.8394C147.288 30.1085 148.886 29.0173 151.64 29.0173C154.252 29.0173 155.908 29.7755 156.306 31.4362H157.155L156.574 28.4009C156.23 28.367 155.884 28.3291 155.536 28.291C154.417 28.1686 153.284 28.0446 152.149 28.0446C147.726 28.0446 144.389 29.6338 144.389 32.6939C144.389 35.663 147.386 36.6899 150.213 37.6584C152.715 38.5153 155.082 39.3266 155.123 41.3966C155.164 43.4261 151.468 44.8915 147.104 44.9328C143.595 44.9672 140.604 43.8376 137.707 40.9962L132.637 36.6524C135.524 36.3015 137.787 34.6146 137.787 32.5989C137.787 30.9148 136.263 28.4009 129.409 28.4009C128.733 28.4009 127.738 28.4029 126.619 28.4052C123.902 28.4106 120.451 28.4175 119.038 28.4009V29.4177C120.96 29.4425 122.337 29.4659 122.337 31.1253L122.321 44.9548C124.134 44.9314 125.929 44.9548 125.873 44.9548L125.892 37.1271H129.192L133.845 41.0788C134.096 41.2914 134.346 41.518 134.605 41.7528C136.594 43.5538 139.115 45.8373 146.355 46.0101C151.56 46.1326 158.582 44.7374 158.459 40.4954ZM203.798 29.4824V30.191H204.532C204.811 30.1965 205.003 30.1291 205.003 29.8154C205.003 29.4824 204.645 29.4824 204.403 29.4824H203.798ZM205.487 29.8869C205.487 30.3479 205.252 30.5364 204.811 30.5667L205.417 31.622H204.848L204.289 30.5667H203.798V31.622H203.307V29.1247H204.518C204.731 29.1247 205.01 29.1288 205.198 29.2389C205.424 29.3847 205.487 29.6269 205.487 29.8869ZM206.58 30.3602C206.58 31.6399 205.538 32.6828 204.264 32.6828C202.979 32.6828 201.942 31.6399 201.942 30.3602C201.942 29.0875 202.979 28.0446 204.264 28.0446C205.538 28.0446 206.58 29.0875 206.58 30.3602ZM202.379 30.3602C202.379 31.4101 203.216 32.2467 204.264 32.2467C205.306 32.2467 206.144 31.4101 206.144 30.3602C206.144 29.3173 205.306 28.4822 204.264 28.4822C203.216 28.4822 202.379 29.3173 202.379 30.3602Z" fill="white"/>
</g>
</g>
</g>
<defs>
<clipPath id="clip0_17_2780">
<rect width="206.39" height="72" fill="white" transform="translate(0.189941 0.370117)"/>
</clipPath>
<clipPath id="clip1_17_2780">
<rect width="206.39" height="72" fill="white" transform="translate(0.189941 0.370117)"/>
</clipPath>
<clipPath id="clip2_17_2780">
<rect width="206.39" height="59.9971" fill="white" transform="translate(0.189941 6.37158)"/>
</clipPath>
</defs>
</svg>
