<svg width="12" height="10" viewBox="0 0 12 10" fill="none" xmlns="http://www.w3.org/2000/svg">
<g id="USA.svg" clip-path="url(#clip0_17_1325)">
<g id="Group">
<g id="Group_2">
<path id="Vector" d="M0 0.235413H17.1V0.927288H0V0.235413ZM0 1.62104H17.1V2.31291H0V1.62104ZM0 3.00479H17.1V3.69854H0V3.00479ZM0 4.38854H17.1V5.08041H0V4.38854ZM0 5.77416H17.1V6.46604H0V5.77416ZM0 7.15791H17.1V7.84979H0V7.15791ZM0 8.54354H17.1V9.23541H0V8.54354Z" fill="#BD3D44"/>
<path id="Vector_2" d="M0 0.927284H17.1V1.61916H0V0.927284ZM0 2.31291H17.1V3.00291H0V2.31291ZM0 3.69666H17.1V4.38853H0V3.69666ZM0 5.08228H17.1V5.77416H0V5.08228ZM0 6.46603H17.1V7.15791H0V6.46603ZM0 7.84978H17.1V8.54166H0V7.84978Z" fill="white"/>
</g>
<path id="Vector_3" d="M0 0.235413H6.84V5.08229H0V0.235413Z" fill="#192F5D"/>
<path id="Vector_4" d="M0.570009 0.443535L0.633759 0.634785H0.834384L0.673134 0.75291L0.735009 0.946035L0.571884 0.826035L0.410634 0.94416L0.468759 0.75291L0.305634 0.634785H0.510009L0.570009 0.443535ZM1.71001 0.443535L1.77188 0.634785H1.97438L1.81126 0.75291L1.87313 0.946035L1.71188 0.826035L1.54876 0.94416L1.61063 0.75291L1.44938 0.634785H1.65001L1.71001 0.443535ZM2.85001 0.443535L2.91376 0.634785H3.11251L2.95126 0.75291L3.01313 0.946035L2.85001 0.826035L2.68876 0.94416L2.75063 0.75291L2.58751 0.634785H2.79001L2.85001 0.443535ZM3.99001 0.443535L4.05188 0.634785H4.25438L4.09126 0.75291L4.15501 0.946035L3.99188 0.826035L3.82876 0.94416L3.89251 0.75291L3.72938 0.634785H3.93001L3.99001 0.443535ZM5.13001 0.443535L5.19376 0.634785H5.39438L5.23313 0.75291L5.29501 0.946035L5.13188 0.826035L4.97063 0.94416L5.03251 0.75291L4.87126 0.634785H5.07188L5.13001 0.443535ZM6.27001 0.443535L6.33188 0.634785H6.53438L6.37126 0.75291L6.43501 0.946035L6.27188 0.826035L6.10876 0.94416L6.17251 0.75291L6.00938 0.634785H6.21188L6.27001 0.443535ZM1.14001 0.927285L1.20188 1.11853H1.40438L1.24126 1.23666L1.30126 1.42791L1.14376 1.30978L0.980634 1.42791L1.03876 1.23666L0.881259 1.11853H1.08188L1.14001 0.927285ZM2.28001 0.927285L2.34376 1.11853H2.54438L2.38126 1.23666L2.44501 1.42791L2.28188 1.30978L2.11876 1.42791L2.18251 1.23666L2.01938 1.11853H2.22188L2.28001 0.927285ZM3.42001 0.927285L3.48188 1.11853H3.68438L3.52126 1.23666L3.58313 1.42791L3.42188 1.30978L3.25876 1.42791L3.32063 1.23666L3.15938 1.11853H3.36001L3.42001 0.927285ZM4.56001 0.927285L4.62376 1.11853H4.82438L4.66126 1.23666L4.72501 1.42791L4.56188 1.30978L4.40063 1.42791L4.46251 1.23666L4.29938 1.11853H4.50001L4.56001 0.927285ZM5.70001 0.927285L5.76188 1.11853H5.96438L5.80126 1.23666L5.86313 1.42791L5.70188 1.30978L5.53876 1.42791L5.60063 1.23666L5.43938 1.11853H5.64001L5.70001 0.927285ZM0.570009 1.41103L0.633759 1.60603H0.834384L0.673134 1.72416L0.735009 1.91541L0.571884 1.79541L0.410634 1.91541L0.468759 1.72229L0.305634 1.60416H0.510009L0.570009 1.41103ZM1.71001 1.41103L1.77188 1.60416H1.97438L1.81126 1.72229L1.87313 1.91353L1.71188 1.79353L1.54876 1.91353L1.61063 1.72041L1.44938 1.60228H1.65001L1.71001 1.41103ZM2.85001 1.41103L2.91376 1.60416H3.11251L2.95126 1.72229L3.01313 1.91353L2.85001 1.79353L2.68876 1.91353L2.75063 1.72041L2.58751 1.60228H2.79001L2.85001 1.41103ZM3.99001 1.41103L4.05188 1.60416H4.25438L4.09126 1.72229L4.15501 1.91353L3.99188 1.79353L3.82876 1.91353L3.89251 1.72041L3.72938 1.60228H3.93001L3.99001 1.41103ZM5.13001 1.41103L5.19376 1.60416H5.39438L5.23313 1.72229L5.29501 1.91353L5.13188 1.79353L4.97063 1.91353L5.03251 1.72041L4.87126 1.60228H5.07188L5.13001 1.41103ZM6.27001 1.41103L6.33188 1.60416H6.53438L6.37126 1.72229L6.43501 1.91353L6.27188 1.79353L6.10876 1.91353L6.17251 1.72041L6.00938 1.60228H6.21188L6.27001 1.41103ZM1.14001 1.89666L1.20188 2.08791H1.40438L1.24126 2.20603L1.30313 2.39916L1.14188 2.27916L0.978759 2.39728L1.04063 2.20603L0.879384 2.08791H1.08001L1.14001 1.89666ZM2.28001 1.89666L2.34376 2.08791H2.54438L2.38126 2.20603L2.44501 2.39916L2.28188 2.27916L2.11876 2.39728L2.18251 2.20603L2.01938 2.08791H2.22188L2.28001 1.89666ZM3.42001 1.89666L3.48188 2.08791H3.68438L3.52126 2.20603L3.58313 2.39916L3.42188 2.27916L3.25876 2.39728L3.32063 2.20603L3.15938 2.08791H3.36001L3.42001 1.89666ZM4.56001 1.89666L4.62376 2.08791H4.82438L4.66313 2.20603L4.72501 2.39916L4.56188 2.27916L4.40063 2.39728L4.46251 2.20603L4.29938 2.08791H4.50001L4.56001 1.89666ZM5.70001 1.89666L5.76188 2.08791H5.96438L5.80126 2.20603L5.86313 2.39916L5.70001 2.27916L5.53688 2.39728L5.59876 2.20603L5.43751 2.08791H5.63813L5.70001 1.89666ZM0.570009 2.38228L0.633759 2.57353H0.834384L0.673134 2.69166L0.735009 2.88478L0.571884 2.76478L0.410634 2.88291L0.468759 2.69166L0.305634 2.57353H0.510009L0.570009 2.38228ZM1.71001 2.38228L1.77188 2.57353H1.97438L1.81126 2.69166L1.87313 2.88291L1.71188 2.76478L1.54876 2.88291L1.61063 2.69166L1.44938 2.57353H1.65001L1.71001 2.38228ZM2.85001 2.38228L2.91376 2.57353H3.11251L2.95126 2.69166L3.01313 2.88478L2.85001 2.76478L2.68876 2.88291L2.75063 2.69166L2.58751 2.57353H2.79001L2.85001 2.38228ZM3.99001 2.38228L4.05188 2.57353H4.25438L4.09126 2.69166L4.15501 2.88478L3.99188 2.76478L3.82876 2.88291L3.89251 2.69166L3.72938 2.57353H3.93001L3.99001 2.38228ZM5.13001 2.38228L5.19376 2.57353H5.39438L5.23126 2.69166L5.29313 2.88478L5.13001 2.76478L4.96876 2.88291L5.03063 2.69166L4.86938 2.57353H5.07001L5.13001 2.38228ZM6.27001 2.38228L6.33188 2.57353H6.53438L6.37126 2.69166L6.43501 2.88478L6.27188 2.76478L6.10876 2.88291L6.17251 2.69166L6.00938 2.57353H6.21188L6.27001 2.38228ZM1.14001 2.86603L1.20188 3.05728H1.40438L1.24126 3.17541L1.30313 3.36666L1.14188 3.24666L0.978759 3.36666L1.04063 3.17353L0.879384 3.05541H1.08001L1.14001 2.86603ZM2.28001 2.86603L2.34376 3.05728H2.54438L2.38126 3.17541L2.44501 3.36666L2.28188 3.24666L2.11876 3.36666L2.18251 3.17353L2.01938 3.05541H2.22188L2.28001 2.86603ZM3.42001 2.86603L3.48188 3.05728H3.68438L3.52126 3.17541L3.58313 3.36666L3.42188 3.24666L3.25876 3.36666L3.32063 3.17353L3.15938 3.05541H3.36001L3.42001 2.86603ZM4.56001 2.86603L4.62376 3.05728H4.82438L4.66313 3.17541L4.72501 3.36666L4.56188 3.24666L4.40063 3.36666L4.46251 3.17353L4.29938 3.05541H4.50001L4.56001 2.86603ZM5.70001 2.86603L5.76188 3.05728H5.96438L5.80126 3.17541L5.86313 3.36666L5.70188 3.24666L5.53876 3.36666L5.60063 3.17353L5.43938 3.05541H5.64001L5.70001 2.86603ZM0.570009 3.34978L0.633759 3.54291H0.834384L0.673134 3.66103L0.735009 3.85041L0.571884 3.73228L0.410634 3.85041L0.472509 3.65916L0.309384 3.54103H0.513759L0.570009 3.34978ZM1.71001 3.34978L1.77188 3.54291H1.97438L1.81126 3.66103L1.87501 3.85041L1.71188 3.73228L1.54876 3.85041L1.61251 3.65916L1.44938 3.54103H1.65001L1.71001 3.34978ZM2.85001 3.34978L2.91376 3.54291H3.11251L2.95126 3.66103L3.01313 3.85041L2.85001 3.73228L2.68876 3.85041L2.75063 3.65916L2.58751 3.54103H2.79001L2.85001 3.34978ZM3.99001 3.34978L4.05188 3.54291H4.25438L4.09126 3.66103L4.15501 3.85041L3.99188 3.73228L3.82876 3.85041L3.89251 3.65916L3.72938 3.54103H3.93001L3.99001 3.34978ZM5.13001 3.34978L5.19376 3.54291H5.39438L5.23313 3.66103L5.29501 3.85041L5.13188 3.73228L4.97063 3.85041L5.03251 3.65916L4.87126 3.54103H5.07188L5.13001 3.34978ZM6.27001 3.34978L6.33188 3.54291H6.53438L6.37126 3.66103L6.43501 3.85041L6.27188 3.73228L6.10876 3.85041L6.17251 3.65916L6.00938 3.54103H6.21188L6.27001 3.34978ZM1.14001 3.83541L1.20188 4.02666H1.40438L1.24126 4.14478L1.30313 4.33791L1.14188 4.21791L0.978759 4.33603L1.04063 4.14478L0.879384 4.02666H1.08001L1.14001 3.83541ZM2.28001 3.83541L2.34376 4.02666H2.54438L2.38126 4.14478L2.44501 4.33791L2.28188 4.21791L2.11876 4.33603L2.18251 4.14478L2.01938 4.02666H2.22188L2.28001 3.83541ZM3.42001 3.83541L3.48188 4.02666H3.68438L3.52126 4.14478L3.58313 4.33791L3.42188 4.21791L3.25876 4.33603L3.32063 4.14478L3.15938 4.02666H3.36001L3.42001 3.83541ZM4.56001 3.83541L4.62376 4.02666H4.82438L4.66313 4.14478L4.72501 4.33791L4.56188 4.21791L4.40063 4.33603L4.46251 4.14478L4.29938 4.02666H4.50001L4.56001 3.83541ZM5.70001 3.83541L5.76188 4.02666H5.96438L5.80126 4.14478L5.86313 4.33791L5.70188 4.21791L5.53876 4.33603L5.60063 4.14478L5.43938 4.02666H5.64001L5.70001 3.83541ZM0.570009 4.32103L0.633759 4.51229H0.834384L0.673134 4.63041L0.735009 4.82166L0.571884 4.70354L0.410634 4.82166L0.472509 4.62853L0.309384 4.51041H0.513759L0.570009 4.32103ZM1.71001 4.32103L1.77188 4.51229H1.97438L1.81126 4.63041L1.87501 4.82166L1.71188 4.70354L1.54876 4.82166L1.61251 4.62853L1.44938 4.51041H1.65001L1.71001 4.32103ZM2.85001 4.32103L2.91376 4.51229H3.11251L2.95501 4.63041L3.01688 4.82166L2.85376 4.70354L2.69251 4.82166L2.75438 4.62853L2.58751 4.51041H2.79001L2.85001 4.32103ZM3.99001 4.32103L4.05188 4.51229H4.25438L4.09126 4.63041L4.15501 4.82166L3.99188 4.70354L3.82876 4.82166L3.89251 4.62853L3.72938 4.51041H3.93001L3.99001 4.32103ZM5.13001 4.32103L5.19376 4.51229H5.39438L5.23313 4.63041L5.29501 4.82166L5.13188 4.70354L4.97063 4.82166L5.03251 4.62853L4.87126 4.51041H5.07188L5.13001 4.32103ZM6.27001 4.32103L6.33188 4.51229H6.53438L6.37126 4.63041L6.43501 4.82166L6.27188 4.70354L6.10876 4.82166L6.17251 4.62853L6.00938 4.51041H6.21188L6.27001 4.32103Z" fill="white"/>
</g>
</g>
<defs>
<clipPath id="clip0_17_1325">
<rect width="12" height="9" fill="white" transform="translate(0 0.235413)"/>
</clipPath>
</defs>
</svg>
